M48
; DRILL file {KiCad (6.0.10)} date Mon Apr 24 21:45:02 2023
; FORMAT={3:3/ absolute / metric / keep zeros}
; #@! TF.CreationDate,2023-04-24T21:45:02+09:00
; #@! TF.GenerationSoftware,Kicad,Pcbnew,(6.0.10)
; #@! TF.FileFunction,MixedPlating,1,2
FMAT,2
METRIC
; #@! TA.AperFunction,Plated,PTH,ComponentDrill
T1C0.200
; #@! TA.AperFunction,Plated,PTH,ViaDrill
T2C0.300
; #@! TA.AperFunction,Plated,PTH,ComponentDrill
T3C0.300
; #@! TA.AperFunction,Plated,PTH,ViaDrill
T4C0.400
; #@! TA.AperFunction,Plated,PTH,ViaDrill
T5C0.550
; #@! TA.AperFunction,Plated,PTH,ComponentDrill
T6C1.000
; #@! TA.AperFunction,Plated,PTH,ComponentDrill
T7C1.040
; #@! TA.AperFunction,Plated,PTH,ComponentDrill
T8C1.600
; #@! TA.AperFunction,Plated,PTH,ComponentDrill
T9C3.000
; #@! TA.AperFunction,Plated,PTH,ComponentDrill
T10C3.200
; #@! TA.AperFunction,NonPlated,NPTH,ComponentDrill
T11C0.520
; #@! TA.AperFunction,NonPlated,NPTH,ComponentDrill
T12C0.850
; #@! TA.AperFunction,NonPlated,NPTH,ComponentDrill
T13C0.890
; #@! TA.AperFunction,NonPlated,NPTH,ComponentDrill
T14C1.050
%
G90
G05
T1
X203350Y-083313
X204600Y-082313
X204600Y-083313
X204600Y-084313
X205850Y-083313
T2
X158900Y-214000
X160776Y-124000
X160776Y-126000
X160776Y-128000
X162893Y-077556
X162981Y-064919
X163000Y-065750
X163000Y-070750
X163000Y-196500
X163000Y-198750
X163131Y-068969
X163250Y-067000
X163250Y-093000
X165000Y-053800
X166800Y-201000
X166900Y-143695
X167000Y-059000
X167000Y-062000
X167000Y-064000
X167190Y-080995
X167200Y-054400
X167250Y-083250
X167426Y-081811
X167676Y-074881
X167700Y-067426
X168216Y-085199
X168219Y-070719
X168400Y-086400
X168491Y-080009
X168514Y-087362
X168813Y-072316
X168960Y-074022
X169125Y-084313
X169250Y-196250
X169426Y-075000
X169686Y-079436
X169686Y-078623
X169687Y-202113
X169926Y-081075
X170346Y-204454
X170425Y-198575
X170500Y-056376
X170776Y-072588
X170798Y-070375
X171000Y-055600
X171000Y-090750
X171074Y-082250
X171500Y-198000
X172183Y-071180
X172761Y-075000
X173000Y-192250
X173344Y-075656
X173500Y-084250
X173500Y-085399
X173500Y-086750
X173500Y-088500
X173500Y-198000
X173510Y-082684
X173552Y-089989
X173561Y-076439
X173800Y-217200
X173975Y-073276
X174049Y-123400
X174250Y-133750
X174500Y-108000
X174549Y-072775
X175000Y-089250
X175000Y-206225
X175276Y-132876
X175400Y-215000
X176000Y-066900
X176137Y-113437
X176250Y-072500
X176400Y-206401
X176500Y-217200
X177200Y-057000
X177394Y-113871
X178000Y-087250
X178000Y-206950
X178176Y-197024
X178250Y-093750
X178714Y-117464
X179250Y-087750
X179693Y-130513
X179786Y-131262
X180000Y-074500
X180148Y-129151
X180598Y-130598
X180750Y-085500
X181000Y-057000
X181024Y-051176
X181199Y-050400
X181250Y-134350
X181467Y-125467
X181608Y-072025
X181781Y-083969
X182004Y-129500
X182024Y-196476
X182144Y-205944
X182165Y-193214
X182183Y-144200
X182250Y-091500
X182291Y-061467
X182298Y-072452
X182779Y-131607
X183000Y-078250
X183099Y-112600
X183100Y-108467
X183124Y-125524
X183200Y-061600
X183300Y-205951
X183349Y-109666
X183400Y-111900
X183585Y-078719
X183824Y-206526
X183984Y-083266
X183985Y-111315
X184146Y-079400
X184200Y-213576
X184622Y-110921
X184651Y-210100
X184781Y-108395
X184798Y-051201
X184800Y-193148
X184913Y-082004
X185080Y-130280
X185269Y-082925
X185287Y-080870
X185303Y-080121
X185481Y-127390
X185576Y-212376
X185960Y-130180
X186000Y-193500
X186151Y-198151
X186226Y-050924
X186424Y-055624
X186451Y-213201
X186500Y-211299
X186750Y-206633
X187200Y-201600
X187600Y-056200
X188000Y-120400
X188117Y-196133
X188250Y-115500
X188353Y-213950
X188492Y-109662
X188500Y-082750
X188575Y-192192
X188750Y-193250
X188908Y-109038
X189000Y-125780
X189100Y-087600
X189116Y-108207
X189300Y-063900
X189308Y-134192
X189349Y-213250
X190029Y-124200
X190140Y-213109
X190349Y-110266
X190400Y-097000
X190401Y-088000
X190500Y-192250
X190959Y-213291
X191000Y-087400
X191200Y-120000
X191559Y-212599
X191695Y-196195
X191763Y-110725
X191960Y-210058
X192000Y-084000
X192000Y-105600
X192100Y-060100
X192250Y-211257
X192500Y-085600
X192503Y-110839
X192750Y-081176
X193000Y-197500
X193010Y-107490
X193400Y-075800
X193400Y-097100
X193473Y-196125
X193474Y-080980
X193600Y-084400
X193750Y-192150
X193800Y-105600
X193951Y-197451
X194000Y-081600
X194000Y-086750
X194123Y-109873
X194750Y-197500
X194884Y-198250
X196000Y-054400
X196000Y-090200
X196000Y-150000
X196000Y-205750
X196200Y-091600
X196200Y-094600
X196750Y-137000
X196750Y-137750
X196900Y-179500
X197000Y-195200
X197250Y-136500
X197250Y-137250
X197250Y-138000
X197400Y-123000
X197600Y-105600
X197750Y-213500
X197900Y-179500
X198000Y-143500
X198400Y-069600
X198600Y-182300
X198700Y-180800
X198900Y-053900
X199250Y-213500
X199400Y-094600
X200350Y-084712
X202500Y-078272
X204000Y-219200
X205000Y-079212
X205000Y-096250
X205525Y-122000
X205600Y-219200
X207200Y-219200
X208600Y-219200
X209000Y-106000
X210000Y-219200
X211600Y-219200
X213000Y-219200
X214400Y-219200
X215600Y-219200
X217200Y-179000
X217200Y-180000
X217200Y-182000
X217200Y-184000
X217200Y-186000
X217200Y-188000
X217200Y-190000
X217200Y-192000
X217200Y-194000
X217200Y-196000
X217200Y-198000
X217200Y-200000
X217200Y-202000
X217200Y-204000
X217200Y-206000
X217200Y-208000
X217200Y-210000
X217200Y-212000
X217200Y-214000
X217200Y-216000
X217200Y-218000
T3
X184200Y-116800
X184200Y-117600
X184200Y-118400
X184200Y-119200
X184900Y-116800
X184900Y-117600
X184900Y-118400
X184900Y-119200
X185200Y-202800
X185200Y-203600
X185200Y-204400
X185200Y-205200
X185600Y-116800
X185600Y-117600
X185600Y-118400
X185600Y-119200
X185900Y-202800
X185900Y-203600
X185900Y-204400
X185900Y-205200
X186300Y-116800
X186300Y-117600
X186300Y-118400
X186300Y-119200
X186600Y-202800
X186600Y-203600
X186600Y-204400
X186600Y-205200
X187000Y-116800
X187000Y-117600
X187000Y-118400
X187000Y-119200
X187300Y-202800
X187300Y-203600
X187300Y-204400
X187300Y-205200
X187700Y-116800
X187700Y-117600
X187700Y-118400
X187700Y-119200
X188000Y-202800
X188000Y-203600
X188000Y-204400
X188000Y-205200
X188400Y-116800
X188400Y-117600
X188400Y-118400
X188400Y-119200
X188700Y-202800
X188700Y-203600
X188700Y-204400
X188700Y-205200
X189100Y-116800
X189100Y-117600
X189100Y-118400
X189100Y-119200
X189400Y-202800
X189400Y-203600
X189400Y-204400
X189400Y-205200
X189800Y-116800
X189800Y-117600
X189800Y-118400
X189800Y-119200
X190100Y-202800
X190100Y-203600
X190100Y-204400
X190100Y-205200
X190800Y-202800
X190800Y-203600
X190800Y-204400
X190800Y-205200
T4
X158750Y-060000
X158750Y-062000
X158750Y-064000
X158750Y-066000
X158750Y-068000
X158750Y-070000
X158750Y-072000
X158750Y-092000
X158750Y-094000
X158750Y-096000
X158750Y-099000
X158750Y-106000
X158750Y-135000
X158750Y-137000
X158750Y-139000
X158750Y-141000
X158750Y-143000
X158750Y-179000
X158800Y-181000
X158800Y-184000
X158800Y-186000
X158800Y-188000
X158800Y-190000
X158800Y-192000
X158800Y-194000
X158800Y-196000
X158800Y-198000
X158800Y-200000
X158800Y-202000
X158800Y-204000
X158800Y-206000
X158800Y-208000
X158800Y-210000
X158800Y-212000
X159200Y-175000
X159200Y-177000
X159750Y-059000
X159750Y-101250
X159750Y-104500
X160000Y-174000
X160000Y-176000
X160250Y-219250
X161000Y-046250
X161000Y-054000
X161200Y-174000
X161200Y-176000
X161500Y-102000
X162000Y-219250
X162400Y-174000
X162400Y-176000
X162400Y-177000
X163000Y-098250
X163000Y-137000
X163750Y-219250
X164500Y-102000
X165200Y-063000
X165300Y-061000
X165750Y-059000
X165750Y-219250
X166250Y-055500
X167000Y-104500
X167250Y-121000
X167500Y-102000
X167750Y-219250
X168000Y-180800
X168200Y-135400
X168250Y-099250
X168600Y-185200
X168600Y-186200
X168800Y-133600
X168800Y-134600
X168800Y-189800
X169000Y-091500
X169000Y-104000
X169000Y-140000
X169000Y-141000
X169000Y-142000
X169000Y-143000
X169200Y-180800
X169250Y-106000
X169250Y-123000
X169250Y-192250
X169500Y-187500
X169600Y-134200
X169600Y-135400
X169750Y-219250
X170000Y-101000
X170000Y-140000
X170000Y-141000
X170000Y-142000
X170000Y-143000
X170000Y-181600
X170000Y-182800
X170000Y-184000
X170250Y-097250
X170250Y-121000
X170250Y-188750
X170400Y-133600
X170400Y-134600
X170500Y-054500
X170500Y-102000
X171000Y-094000
X171000Y-104000
X171000Y-106000
X171000Y-140000
X171000Y-141000
X171000Y-142000
X171000Y-143000
X171000Y-215600
X171200Y-058900
X171200Y-134200
X171200Y-189800
X171750Y-061750
X171750Y-219250
X171835Y-107085
X172000Y-133600
X172000Y-134600
X172500Y-095500
X173000Y-102000
X173000Y-196000
X173500Y-067051
X174000Y-104000
X174000Y-214924
X174200Y-126600
X174200Y-169000
X174200Y-171000
X174250Y-219250
X174500Y-155000
X174750Y-152750
X175000Y-094000
X175200Y-097800
X175200Y-128400
X175250Y-155500
X175250Y-192600
X175750Y-061000
X175800Y-126400
X176000Y-155500
X176250Y-104000
X176500Y-086500
X176500Y-219250
X176750Y-088250
X176750Y-155500
X176800Y-133400
X177000Y-096000
X177000Y-192600
X177400Y-123800
X177500Y-155500
X177600Y-169000
X177600Y-171000
X177600Y-204800
X178250Y-104000
X178250Y-152750
X178250Y-155000
X178600Y-066800
X178750Y-075750
X178750Y-198000
X178800Y-201600
X179000Y-057000
X179000Y-096500
X179000Y-118500
X179000Y-123800
X179250Y-120500
X179750Y-075750
X179750Y-196250
X179750Y-219250
X180000Y-134200
X180000Y-135600
X180000Y-179700
X180000Y-181200
X180000Y-182200
X180000Y-199500
X180150Y-183400
X180245Y-192355
X180250Y-065250
X180250Y-104000
X180400Y-046200
X180400Y-204800
X180500Y-062000
X180500Y-180400
X180600Y-055200
X180750Y-182650
X180900Y-179700
X180900Y-181200
X181000Y-067000
X181400Y-180400
X181400Y-183400
X181500Y-117500
X181500Y-119500
X181500Y-188000
X181500Y-189250
X181600Y-204800
X181650Y-182650
X181800Y-179700
X181800Y-181200
X182000Y-095500
X182000Y-098849
X182000Y-178400
X182000Y-217000
X182000Y-219000
X182500Y-139600
X182500Y-140800
X182500Y-141750
X182500Y-142800
X182600Y-134400
X183200Y-185400
X183400Y-066800
X183400Y-139600
X183400Y-140800
X183400Y-142800
X183500Y-141750
X183600Y-133600
X183600Y-190000
X184000Y-219000
X184400Y-134400
X184400Y-139600
X184400Y-140800
X184400Y-141800
X184400Y-142800
X184500Y-180500
X184500Y-181500
X184750Y-215500
X185000Y-099500
X185000Y-104000
X185000Y-182600
X185000Y-183600
X185400Y-184800
X185400Y-185800
X185600Y-065600
X185750Y-180500
X185750Y-181500
X185800Y-046200
X185800Y-182600
X185800Y-183600
X186000Y-078500
X186000Y-105000
X186000Y-141750
X186000Y-219000
X186200Y-068400
X186400Y-062300
X186500Y-140750
X186500Y-142750
X186600Y-139600
X187000Y-141750
X187000Y-217000
X187500Y-081500
X187500Y-105000
X187500Y-140750
X187500Y-142750
X187600Y-139600
X188000Y-078500
X188000Y-219000
X188250Y-071000
X188900Y-096300
X189000Y-065600
X189000Y-074000
X189000Y-091750
X189000Y-217000
X189500Y-075500
X189500Y-104000
X190000Y-219000
X190200Y-049800
X190500Y-077000
X190750Y-153000
X190750Y-155000
X191000Y-169000
X191000Y-171000
X191000Y-217000
X191100Y-067800
X191250Y-155750
X191600Y-074000
X191600Y-090800
X192000Y-057800
X192000Y-076000
X192000Y-104000
X192000Y-215000
X192000Y-219000
X192500Y-052000
X192500Y-116500
X192500Y-118500
X192500Y-134750
X192500Y-155750
X192750Y-123500
X192800Y-071400
X193000Y-213000
X193200Y-061400
X193200Y-092200
X193750Y-155750
X193750Y-204750
X194000Y-088800
X194000Y-104000
X194000Y-219000
X194250Y-153000
X194250Y-202500
X194400Y-131200
X194400Y-169000
X194400Y-171000
X194500Y-134000
X194500Y-155000
X195000Y-102000
X195600Y-067400
X195600Y-097800
X195750Y-219000
X195800Y-100200
X195826Y-076374
X196000Y-112000
X196000Y-139500
X196000Y-140500
X196000Y-141500
X196000Y-142500
X196000Y-144000
X196000Y-145250
X196000Y-146250
X196000Y-147250
X196000Y-148250
X196000Y-149250
X196000Y-200250
X196000Y-201750
X196000Y-203250
X196000Y-208000
X196400Y-074600
X196500Y-104000
X196700Y-120300
X196750Y-110750
X196800Y-116800
X196900Y-180800
X197000Y-134500
X197000Y-140500
X197000Y-141500
X197000Y-142500
X197000Y-182250
X197000Y-197250
X197100Y-149900
X197250Y-107000
X197250Y-203250
X197300Y-183100
X197400Y-073800
X197400Y-180100
X197400Y-181500
X197500Y-102000
X197850Y-182250
X197900Y-180800
X198000Y-206000
X198000Y-208000
X198175Y-178200
X198200Y-092600
X198200Y-131200
X198250Y-219000
X198400Y-180100
X198400Y-183100
X198500Y-181500
X198600Y-097800
X199000Y-104000
X199000Y-198000
X199400Y-076000
X199400Y-078400
X199500Y-102000
X199500Y-140500
X199500Y-142500
X199600Y-189800
X199700Y-062900
X199800Y-067400
X199800Y-087000
X199800Y-089000
X200000Y-117000
X200000Y-141500
X200000Y-208000
X200500Y-219000
X200750Y-179750
X200750Y-181000
X200750Y-182000
X200800Y-060400
X200800Y-134400
X201000Y-104000
X201000Y-110000
X201000Y-112000
X201000Y-140500
X201000Y-142500
X201000Y-196000
X201000Y-198000
X201200Y-045700
X201300Y-051700
X201400Y-078600
X201600Y-131000
X201750Y-179750
X201750Y-181000
X201750Y-182000
X201750Y-183000
X201800Y-057800
X202000Y-081200
X202000Y-102000
X202000Y-126000
X202000Y-128200
X202000Y-141500
X202000Y-210000
X202000Y-212000
X202000Y-214000
X202000Y-216000
X202400Y-093400
X202400Y-219000
X202500Y-140500
X202600Y-124200
X203000Y-104000
X203000Y-106000
X203000Y-108000
X203000Y-110000
X203000Y-112000
X203000Y-114000
X203000Y-116000
X203000Y-118000
X203000Y-120000
X203000Y-122000
X203000Y-142500
X203500Y-141500
X203800Y-195200
X203800Y-199200
X204000Y-095000
X204000Y-133000
X204000Y-215800
X204000Y-218000
X204200Y-210200
X204200Y-212000
X204200Y-214000
X204400Y-204600
X204600Y-106000
X204600Y-108000
X204600Y-110000
X204600Y-112000
X204600Y-114000
X204600Y-116000
X204600Y-118000
X204600Y-119600
X204800Y-189800
X205000Y-102000
X205000Y-104000
X205000Y-199200
X205800Y-135200
X206000Y-087000
X206000Y-129800
X206200Y-093800
X206200Y-133000
X206500Y-101000
X206750Y-153000
X206750Y-155250
X206800Y-076200
X207000Y-079800
X207000Y-087000
X207000Y-104000
X207000Y-169000
X207000Y-171000
X207200Y-215800
X207200Y-218000
X207250Y-156000
X208000Y-102000
X208400Y-124000
X208500Y-129000
X208500Y-131000
X208500Y-133000
X208500Y-134000
X208500Y-135000
X208500Y-140250
X208500Y-141500
X208500Y-142750
X208500Y-155750
X208600Y-117200
X208600Y-118400
X208600Y-119800
X208750Y-188000
X208750Y-190000
X209000Y-058400
X209000Y-061000
X209000Y-180000
X209000Y-182000
X209000Y-198000
X209000Y-200000
X209600Y-054200
X209750Y-156000
X210250Y-153000
X210250Y-155250
X210600Y-169000
X210600Y-171000
X210750Y-119000
X210750Y-121000
X210750Y-123000
X210750Y-125000
X210750Y-127000
X210750Y-129000
X210750Y-131000
X210750Y-133000
X210750Y-135000
X211800Y-102000
X212250Y-174250
X212250Y-175250
X212250Y-176250
X212250Y-177250
X212500Y-119000
X212500Y-124000
X212500Y-128000
X212500Y-132000
X212500Y-141000
X212500Y-143000
X212500Y-184000
X212500Y-186000
X212500Y-188000
X213000Y-218000
X216000Y-058400
X216800Y-054800
X217000Y-059600
X217200Y-062000
X217200Y-064000
X217200Y-066000
X217200Y-068000
X217200Y-070000
X217200Y-072000
X217200Y-074000
X217200Y-076000
X217200Y-078000
X217200Y-080000
X217200Y-082000
X217200Y-084000
X217200Y-086000
X217200Y-088000
X217200Y-090000
X217200Y-092000
X217200Y-094000
X217200Y-096000
X217200Y-098000
X217200Y-100000
T5
X174400Y-168000
X174400Y-170000
X175000Y-151750
X175000Y-153750
X175150Y-169000
X175150Y-171000
X175500Y-154750
X175750Y-152750
X175900Y-168000
X175900Y-170000
X176500Y-151750
X176500Y-153750
X176650Y-169000
X176650Y-171000
X177250Y-152750
X177250Y-154750
X177400Y-168000
X177400Y-170000
X177400Y-185800
X178000Y-151750
X178000Y-153750
X191000Y-152000
X191000Y-154000
X191250Y-168000
X191250Y-170000
X191750Y-153000
X191750Y-155000
X192000Y-169000
X192000Y-171000
X192500Y-152000
X192500Y-154000
X192750Y-168000
X192750Y-170000
X193250Y-153000
X193250Y-155000
X193500Y-169000
X193500Y-171000
X194000Y-152000
X194000Y-154000
X194250Y-168000
X194250Y-170000
X198580Y-112100
X204400Y-070300
X204400Y-071800
X204400Y-073300
X205900Y-070300
X205900Y-071800
X205900Y-073300
X207000Y-152000
X207000Y-154000
X207250Y-168000
X207250Y-170000
X207400Y-070300
X207400Y-071800
X207400Y-073300
X207750Y-153000
X207750Y-155000
X208000Y-169000
X208000Y-171000
X208500Y-075000
X208500Y-077000
X208500Y-079000
X208500Y-081000
X208500Y-083000
X208500Y-085000
X208500Y-086500
X208500Y-088000
X208500Y-089500
X208500Y-091000
X208500Y-092500
X208500Y-094000
X208500Y-095500
X208500Y-098000
X208500Y-152000
X208500Y-154000
X208750Y-168000
X208750Y-170000
X209250Y-153000
X209250Y-155000
X209500Y-169000
X209500Y-171000
X210000Y-152000
X210000Y-154000
X210250Y-168000
X210250Y-170000
T6
X174335Y-047120
X174335Y-049660
X174335Y-052200
X176000Y-100500
X176875Y-047120
X176875Y-049660
X176875Y-052200
X178540Y-100500
X181080Y-100500
X183620Y-100500
X186160Y-100500
X188700Y-100500
X191240Y-100500
T7
X180850Y-048200
X180850Y-053000
X185150Y-048200
X185150Y-053000
T8
X206200Y-050700
X211280Y-050700
T9
X179200Y-159000
X179200Y-164100
X185000Y-159000
X185000Y-164100
X190800Y-159000
X190800Y-164000
X215250Y-169500
X215250Y-175500
X215500Y-147500
X215500Y-153500
T10
X158000Y-051000
X175000Y-202000
X201000Y-202000
X218000Y-051000
T11
X183000Y-054350
T12
X163000Y-060000
X163000Y-060000
X163000Y-100000
X163000Y-100000
X213000Y-060000
X213000Y-100000
X213000Y-105000
X213000Y-145000
T13
X183000Y-046850
T14
X163000Y-107000
X163000Y-143000
X163000Y-180000
X163000Y-216000
X213000Y-062000
X213000Y-098000
X213000Y-180000
X213000Y-216000
T0
M30
