%TF.GenerationSoftware,KiCad,Pcbnew,(6.0.10)*%
%TF.CreationDate,2023-04-24T21:45:00+09:00*%
%TF.ProjectId,qdrive_hw,71647269-7665-45f6-9877-2e6b69636164,rev?*%
%TF.SameCoordinates,Original*%
%TF.FileFunction,Legend,Bot*%
%TF.FilePolarity,Positive*%
%FSLAX46Y46*%
G04 Gerber Fmt 4.6, Leading zero omitted, Abs format (unit mm)*
G04 Created by KiCad (PCBNEW (6.0.10)) date 2023-04-24 21:45:00*
%MOMM*%
%LPD*%
G01*
G04 APERTURE LIST*
%ADD10C,0.080000*%
%ADD11C,0.500000*%
%ADD12C,0.120000*%
%ADD13C,0.200000*%
%ADD14C,0.100000*%
G04 APERTURE END LIST*
D10*
X163457142Y-145200000D02*
X163514285Y-145171428D01*
X163600000Y-145171428D01*
X163685714Y-145200000D01*
X163742857Y-145257142D01*
X163771428Y-145314285D01*
X163800000Y-145428571D01*
X163800000Y-145514285D01*
X163771428Y-145628571D01*
X163742857Y-145685714D01*
X163685714Y-145742857D01*
X163600000Y-145771428D01*
X163542857Y-145771428D01*
X163457142Y-145742857D01*
X163428571Y-145714285D01*
X163428571Y-145514285D01*
X163542857Y-145514285D01*
X163171428Y-145771428D02*
X163171428Y-145171428D01*
X162828571Y-145771428D01*
X162828571Y-145171428D01*
X162542857Y-145771428D02*
X162542857Y-145171428D01*
X162400000Y-145171428D01*
X162314285Y-145200000D01*
X162257142Y-145257142D01*
X162228571Y-145314285D01*
X162200000Y-145428571D01*
X162200000Y-145514285D01*
X162228571Y-145628571D01*
X162257142Y-145685714D01*
X162314285Y-145742857D01*
X162400000Y-145771428D01*
X162542857Y-145771428D01*
D11*
X187614285Y-164314285D02*
X188042857Y-164171428D01*
X188185714Y-164028571D01*
X188328571Y-163742857D01*
X188328571Y-163314285D01*
X188185714Y-163028571D01*
X188042857Y-162885714D01*
X187757142Y-162742857D01*
X186614285Y-162742857D01*
X186614285Y-165742857D01*
X187614285Y-165742857D01*
X187900000Y-165600000D01*
X188042857Y-165457142D01*
X188185714Y-165171428D01*
X188185714Y-164885714D01*
X188042857Y-164600000D01*
X187900000Y-164457142D01*
X187614285Y-164314285D01*
X186614285Y-164314285D01*
X187685714Y-158885714D02*
X187257142Y-159028571D01*
X187114285Y-159171428D01*
X186971428Y-159457142D01*
X186971428Y-159885714D01*
X187114285Y-160171428D01*
X187257142Y-160314285D01*
X187542857Y-160457142D01*
X188685714Y-160457142D01*
X188685714Y-157457142D01*
X187685714Y-157457142D01*
X187400000Y-157600000D01*
X187257142Y-157742857D01*
X187114285Y-158028571D01*
X187114285Y-158314285D01*
X187257142Y-158600000D01*
X187400000Y-158742857D01*
X187685714Y-158885714D01*
X188685714Y-158885714D01*
D10*
%TO.C,J206*%
X166771428Y-58171428D02*
X166771428Y-58600000D01*
X166800000Y-58685714D01*
X166857142Y-58742857D01*
X166942857Y-58771428D01*
X167000000Y-58771428D01*
X166514285Y-58228571D02*
X166485714Y-58200000D01*
X166428571Y-58171428D01*
X166285714Y-58171428D01*
X166228571Y-58200000D01*
X166200000Y-58228571D01*
X166171428Y-58285714D01*
X166171428Y-58342857D01*
X166200000Y-58428571D01*
X166542857Y-58771428D01*
X166171428Y-58771428D01*
X165800000Y-58171428D02*
X165742857Y-58171428D01*
X165685714Y-58200000D01*
X165657142Y-58228571D01*
X165628571Y-58285714D01*
X165600000Y-58400000D01*
X165600000Y-58542857D01*
X165628571Y-58657142D01*
X165657142Y-58714285D01*
X165685714Y-58742857D01*
X165742857Y-58771428D01*
X165800000Y-58771428D01*
X165857142Y-58742857D01*
X165885714Y-58714285D01*
X165914285Y-58657142D01*
X165942857Y-58542857D01*
X165942857Y-58400000D01*
X165914285Y-58285714D01*
X165885714Y-58228571D01*
X165857142Y-58200000D01*
X165800000Y-58171428D01*
X165085714Y-58171428D02*
X165200000Y-58171428D01*
X165257142Y-58200000D01*
X165285714Y-58228571D01*
X165342857Y-58314285D01*
X165371428Y-58428571D01*
X165371428Y-58657142D01*
X165342857Y-58714285D01*
X165314285Y-58742857D01*
X165257142Y-58771428D01*
X165142857Y-58771428D01*
X165085714Y-58742857D01*
X165057142Y-58714285D01*
X165028571Y-58657142D01*
X165028571Y-58514285D01*
X165057142Y-58457142D01*
X165085714Y-58428571D01*
X165142857Y-58400000D01*
X165257142Y-58400000D01*
X165314285Y-58428571D01*
X165342857Y-58457142D01*
X165371428Y-58514285D01*
%TO.C,R409*%
X182978571Y-188017787D02*
X183264285Y-188217787D01*
X182978571Y-188360644D02*
X183578571Y-188360644D01*
X183578571Y-188132073D01*
X183550000Y-188074930D01*
X183521428Y-188046359D01*
X183464285Y-188017787D01*
X183378571Y-188017787D01*
X183321428Y-188046359D01*
X183292857Y-188074930D01*
X183264285Y-188132073D01*
X183264285Y-188360644D01*
X183378571Y-187503501D02*
X182978571Y-187503501D01*
X183607142Y-187646359D02*
X183178571Y-187789216D01*
X183178571Y-187417787D01*
X183578571Y-187074930D02*
X183578571Y-187017787D01*
X183550000Y-186960644D01*
X183521428Y-186932073D01*
X183464285Y-186903501D01*
X183350000Y-186874930D01*
X183207142Y-186874930D01*
X183092857Y-186903501D01*
X183035714Y-186932073D01*
X183007142Y-186960644D01*
X182978571Y-187017787D01*
X182978571Y-187074930D01*
X183007142Y-187132073D01*
X183035714Y-187160644D01*
X183092857Y-187189216D01*
X183207142Y-187217787D01*
X183350000Y-187217787D01*
X183464285Y-187189216D01*
X183521428Y-187160644D01*
X183550000Y-187132073D01*
X183578571Y-187074930D01*
X182978571Y-186589216D02*
X182978571Y-186474930D01*
X183007142Y-186417787D01*
X183035714Y-186389216D01*
X183121428Y-186332073D01*
X183235714Y-186303501D01*
X183464285Y-186303501D01*
X183521428Y-186332073D01*
X183550000Y-186360644D01*
X183578571Y-186417787D01*
X183578571Y-186532073D01*
X183550000Y-186589216D01*
X183521428Y-186617787D01*
X183464285Y-186646359D01*
X183321428Y-186646359D01*
X183264285Y-186617787D01*
X183235714Y-186589216D01*
X183207142Y-186532073D01*
X183207142Y-186417787D01*
X183235714Y-186360644D01*
X183264285Y-186332073D01*
X183321428Y-186303501D01*
%TO.C,R415*%
X198978571Y-188421428D02*
X199264285Y-188621428D01*
X198978571Y-188764285D02*
X199578571Y-188764285D01*
X199578571Y-188535714D01*
X199550000Y-188478571D01*
X199521428Y-188450000D01*
X199464285Y-188421428D01*
X199378571Y-188421428D01*
X199321428Y-188450000D01*
X199292857Y-188478571D01*
X199264285Y-188535714D01*
X199264285Y-188764285D01*
X199378571Y-187907142D02*
X198978571Y-187907142D01*
X199607142Y-188050000D02*
X199178571Y-188192857D01*
X199178571Y-187821428D01*
X198978571Y-187278571D02*
X198978571Y-187621428D01*
X198978571Y-187450000D02*
X199578571Y-187450000D01*
X199492857Y-187507142D01*
X199435714Y-187564285D01*
X199407142Y-187621428D01*
X199578571Y-186735714D02*
X199578571Y-187021428D01*
X199292857Y-187050000D01*
X199321428Y-187021428D01*
X199350000Y-186964285D01*
X199350000Y-186821428D01*
X199321428Y-186764285D01*
X199292857Y-186735714D01*
X199235714Y-186707142D01*
X199092857Y-186707142D01*
X199035714Y-186735714D01*
X199007142Y-186764285D01*
X198978571Y-186821428D01*
X198978571Y-186964285D01*
X199007142Y-187021428D01*
X199035714Y-187050000D01*
%TO.C,C303*%
X187671428Y-133414285D02*
X187700000Y-133442857D01*
X187785714Y-133471428D01*
X187842857Y-133471428D01*
X187928571Y-133442857D01*
X187985714Y-133385714D01*
X188014285Y-133328571D01*
X188042857Y-133214285D01*
X188042857Y-133128571D01*
X188014285Y-133014285D01*
X187985714Y-132957142D01*
X187928571Y-132900000D01*
X187842857Y-132871428D01*
X187785714Y-132871428D01*
X187700000Y-132900000D01*
X187671428Y-132928571D01*
X187471428Y-132871428D02*
X187100000Y-132871428D01*
X187300000Y-133100000D01*
X187214285Y-133100000D01*
X187157142Y-133128571D01*
X187128571Y-133157142D01*
X187100000Y-133214285D01*
X187100000Y-133357142D01*
X187128571Y-133414285D01*
X187157142Y-133442857D01*
X187214285Y-133471428D01*
X187385714Y-133471428D01*
X187442857Y-133442857D01*
X187471428Y-133414285D01*
X186728571Y-132871428D02*
X186671428Y-132871428D01*
X186614285Y-132900000D01*
X186585714Y-132928571D01*
X186557142Y-132985714D01*
X186528571Y-133100000D01*
X186528571Y-133242857D01*
X186557142Y-133357142D01*
X186585714Y-133414285D01*
X186614285Y-133442857D01*
X186671428Y-133471428D01*
X186728571Y-133471428D01*
X186785714Y-133442857D01*
X186814285Y-133414285D01*
X186842857Y-133357142D01*
X186871428Y-133242857D01*
X186871428Y-133100000D01*
X186842857Y-132985714D01*
X186814285Y-132928571D01*
X186785714Y-132900000D01*
X186728571Y-132871428D01*
X186328571Y-132871428D02*
X185957142Y-132871428D01*
X186157142Y-133100000D01*
X186071428Y-133100000D01*
X186014285Y-133128571D01*
X185985714Y-133157142D01*
X185957142Y-133214285D01*
X185957142Y-133357142D01*
X185985714Y-133414285D01*
X186014285Y-133442857D01*
X186071428Y-133471428D01*
X186242857Y-133471428D01*
X186300000Y-133442857D01*
X186328571Y-133414285D01*
%TO.C,R315*%
X171871428Y-135671428D02*
X172071428Y-135385714D01*
X172214285Y-135671428D02*
X172214285Y-135071428D01*
X171985714Y-135071428D01*
X171928571Y-135100000D01*
X171900000Y-135128571D01*
X171871428Y-135185714D01*
X171871428Y-135271428D01*
X171900000Y-135328571D01*
X171928571Y-135357142D01*
X171985714Y-135385714D01*
X172214285Y-135385714D01*
X171671428Y-135071428D02*
X171300000Y-135071428D01*
X171500000Y-135300000D01*
X171414285Y-135300000D01*
X171357142Y-135328571D01*
X171328571Y-135357142D01*
X171300000Y-135414285D01*
X171300000Y-135557142D01*
X171328571Y-135614285D01*
X171357142Y-135642857D01*
X171414285Y-135671428D01*
X171585714Y-135671428D01*
X171642857Y-135642857D01*
X171671428Y-135614285D01*
X170728571Y-135671428D02*
X171071428Y-135671428D01*
X170900000Y-135671428D02*
X170900000Y-135071428D01*
X170957142Y-135157142D01*
X171014285Y-135214285D01*
X171071428Y-135242857D01*
X170185714Y-135071428D02*
X170471428Y-135071428D01*
X170500000Y-135357142D01*
X170471428Y-135328571D01*
X170414285Y-135300000D01*
X170271428Y-135300000D01*
X170214285Y-135328571D01*
X170185714Y-135357142D01*
X170157142Y-135414285D01*
X170157142Y-135557142D01*
X170185714Y-135614285D01*
X170214285Y-135642857D01*
X170271428Y-135671428D01*
X170414285Y-135671428D01*
X170471428Y-135642857D01*
X170500000Y-135614285D01*
%TO.C,NT402*%
X204228571Y-188757142D02*
X204828571Y-188757142D01*
X204228571Y-188414285D01*
X204828571Y-188414285D01*
X204828571Y-188214285D02*
X204828571Y-187871428D01*
X204228571Y-188042857D02*
X204828571Y-188042857D01*
X204628571Y-187414285D02*
X204228571Y-187414285D01*
X204857142Y-187557142D02*
X204428571Y-187700000D01*
X204428571Y-187328571D01*
X204828571Y-186985714D02*
X204828571Y-186928571D01*
X204800000Y-186871428D01*
X204771428Y-186842857D01*
X204714285Y-186814285D01*
X204600000Y-186785714D01*
X204457142Y-186785714D01*
X204342857Y-186814285D01*
X204285714Y-186842857D01*
X204257142Y-186871428D01*
X204228571Y-186928571D01*
X204228571Y-186985714D01*
X204257142Y-187042857D01*
X204285714Y-187071428D01*
X204342857Y-187100000D01*
X204457142Y-187128571D01*
X204600000Y-187128571D01*
X204714285Y-187100000D01*
X204771428Y-187071428D01*
X204800000Y-187042857D01*
X204828571Y-186985714D01*
X204771428Y-186557142D02*
X204800000Y-186528571D01*
X204828571Y-186471428D01*
X204828571Y-186328571D01*
X204800000Y-186271428D01*
X204771428Y-186242857D01*
X204714285Y-186214285D01*
X204657142Y-186214285D01*
X204571428Y-186242857D01*
X204228571Y-186585714D01*
X204228571Y-186214285D01*
%TO.C,NT301*%
X192007142Y-135521428D02*
X192007142Y-134921428D01*
X191664285Y-135521428D01*
X191664285Y-134921428D01*
X191464285Y-134921428D02*
X191121428Y-134921428D01*
X191292857Y-135521428D02*
X191292857Y-134921428D01*
X190978571Y-134921428D02*
X190607142Y-134921428D01*
X190807142Y-135150000D01*
X190721428Y-135150000D01*
X190664285Y-135178571D01*
X190635714Y-135207142D01*
X190607142Y-135264285D01*
X190607142Y-135407142D01*
X190635714Y-135464285D01*
X190664285Y-135492857D01*
X190721428Y-135521428D01*
X190892857Y-135521428D01*
X190950000Y-135492857D01*
X190978571Y-135464285D01*
X190235714Y-134921428D02*
X190178571Y-134921428D01*
X190121428Y-134950000D01*
X190092857Y-134978571D01*
X190064285Y-135035714D01*
X190035714Y-135150000D01*
X190035714Y-135292857D01*
X190064285Y-135407142D01*
X190092857Y-135464285D01*
X190121428Y-135492857D01*
X190178571Y-135521428D01*
X190235714Y-135521428D01*
X190292857Y-135492857D01*
X190321428Y-135464285D01*
X190350000Y-135407142D01*
X190378571Y-135292857D01*
X190378571Y-135150000D01*
X190350000Y-135035714D01*
X190321428Y-134978571D01*
X190292857Y-134950000D01*
X190235714Y-134921428D01*
X189464285Y-135521428D02*
X189807142Y-135521428D01*
X189635714Y-135521428D02*
X189635714Y-134921428D01*
X189692857Y-135007142D01*
X189750000Y-135064285D01*
X189807142Y-135092857D01*
%TO.C,R312*%
X188171428Y-144271428D02*
X188371428Y-143985714D01*
X188514285Y-144271428D02*
X188514285Y-143671428D01*
X188285714Y-143671428D01*
X188228571Y-143700000D01*
X188200000Y-143728571D01*
X188171428Y-143785714D01*
X188171428Y-143871428D01*
X188200000Y-143928571D01*
X188228571Y-143957142D01*
X188285714Y-143985714D01*
X188514285Y-143985714D01*
X187971428Y-143671428D02*
X187600000Y-143671428D01*
X187800000Y-143900000D01*
X187714285Y-143900000D01*
X187657142Y-143928571D01*
X187628571Y-143957142D01*
X187600000Y-144014285D01*
X187600000Y-144157142D01*
X187628571Y-144214285D01*
X187657142Y-144242857D01*
X187714285Y-144271428D01*
X187885714Y-144271428D01*
X187942857Y-144242857D01*
X187971428Y-144214285D01*
X187028571Y-144271428D02*
X187371428Y-144271428D01*
X187200000Y-144271428D02*
X187200000Y-143671428D01*
X187257142Y-143757142D01*
X187314285Y-143814285D01*
X187371428Y-143842857D01*
X186800000Y-143728571D02*
X186771428Y-143700000D01*
X186714285Y-143671428D01*
X186571428Y-143671428D01*
X186514285Y-143700000D01*
X186485714Y-143728571D01*
X186457142Y-143785714D01*
X186457142Y-143842857D01*
X186485714Y-143928571D01*
X186828571Y-144271428D01*
X186457142Y-144271428D01*
%TO.C,C305*%
X175171428Y-133464285D02*
X175200000Y-133492857D01*
X175285714Y-133521428D01*
X175342857Y-133521428D01*
X175428571Y-133492857D01*
X175485714Y-133435714D01*
X175514285Y-133378571D01*
X175542857Y-133264285D01*
X175542857Y-133178571D01*
X175514285Y-133064285D01*
X175485714Y-133007142D01*
X175428571Y-132950000D01*
X175342857Y-132921428D01*
X175285714Y-132921428D01*
X175200000Y-132950000D01*
X175171428Y-132978571D01*
X174971428Y-132921428D02*
X174600000Y-132921428D01*
X174800000Y-133150000D01*
X174714285Y-133150000D01*
X174657142Y-133178571D01*
X174628571Y-133207142D01*
X174600000Y-133264285D01*
X174600000Y-133407142D01*
X174628571Y-133464285D01*
X174657142Y-133492857D01*
X174714285Y-133521428D01*
X174885714Y-133521428D01*
X174942857Y-133492857D01*
X174971428Y-133464285D01*
X174228571Y-132921428D02*
X174171428Y-132921428D01*
X174114285Y-132950000D01*
X174085714Y-132978571D01*
X174057142Y-133035714D01*
X174028571Y-133150000D01*
X174028571Y-133292857D01*
X174057142Y-133407142D01*
X174085714Y-133464285D01*
X174114285Y-133492857D01*
X174171428Y-133521428D01*
X174228571Y-133521428D01*
X174285714Y-133492857D01*
X174314285Y-133464285D01*
X174342857Y-133407142D01*
X174371428Y-133292857D01*
X174371428Y-133150000D01*
X174342857Y-133035714D01*
X174314285Y-132978571D01*
X174285714Y-132950000D01*
X174228571Y-132921428D01*
X173485714Y-132921428D02*
X173771428Y-132921428D01*
X173800000Y-133207142D01*
X173771428Y-133178571D01*
X173714285Y-133150000D01*
X173571428Y-133150000D01*
X173514285Y-133178571D01*
X173485714Y-133207142D01*
X173457142Y-133264285D01*
X173457142Y-133407142D01*
X173485714Y-133464285D01*
X173514285Y-133492857D01*
X173571428Y-133521428D01*
X173714285Y-133521428D01*
X173771428Y-133492857D01*
X173800000Y-133464285D01*
%TO.C,R412*%
X184328571Y-178128571D02*
X184128571Y-178414285D01*
X183985714Y-178128571D02*
X183985714Y-178728571D01*
X184214285Y-178728571D01*
X184271428Y-178700000D01*
X184300000Y-178671428D01*
X184328571Y-178614285D01*
X184328571Y-178528571D01*
X184300000Y-178471428D01*
X184271428Y-178442857D01*
X184214285Y-178414285D01*
X183985714Y-178414285D01*
X184842857Y-178528571D02*
X184842857Y-178128571D01*
X184700000Y-178757142D02*
X184557142Y-178328571D01*
X184928571Y-178328571D01*
X185471428Y-178128571D02*
X185128571Y-178128571D01*
X185300000Y-178128571D02*
X185300000Y-178728571D01*
X185242857Y-178642857D01*
X185185714Y-178585714D01*
X185128571Y-178557142D01*
X185700000Y-178671428D02*
X185728571Y-178700000D01*
X185785714Y-178728571D01*
X185928571Y-178728571D01*
X185985714Y-178700000D01*
X186014285Y-178671428D01*
X186042857Y-178614285D01*
X186042857Y-178557142D01*
X186014285Y-178471428D01*
X185671428Y-178128571D01*
X186042857Y-178128571D01*
%TO.C,J304*%
X162291071Y-104328571D02*
X162291071Y-103900000D01*
X162262500Y-103814285D01*
X162205357Y-103757142D01*
X162119642Y-103728571D01*
X162062500Y-103728571D01*
X162519642Y-104328571D02*
X162891071Y-104328571D01*
X162691071Y-104100000D01*
X162776785Y-104100000D01*
X162833928Y-104071428D01*
X162862500Y-104042857D01*
X162891071Y-103985714D01*
X162891071Y-103842857D01*
X162862500Y-103785714D01*
X162833928Y-103757142D01*
X162776785Y-103728571D01*
X162605357Y-103728571D01*
X162548214Y-103757142D01*
X162519642Y-103785714D01*
X163262500Y-104328571D02*
X163319642Y-104328571D01*
X163376785Y-104300000D01*
X163405357Y-104271428D01*
X163433928Y-104214285D01*
X163462500Y-104100000D01*
X163462500Y-103957142D01*
X163433928Y-103842857D01*
X163405357Y-103785714D01*
X163376785Y-103757142D01*
X163319642Y-103728571D01*
X163262500Y-103728571D01*
X163205357Y-103757142D01*
X163176785Y-103785714D01*
X163148214Y-103842857D01*
X163119642Y-103957142D01*
X163119642Y-104100000D01*
X163148214Y-104214285D01*
X163176785Y-104271428D01*
X163205357Y-104300000D01*
X163262500Y-104328571D01*
X163976785Y-104128571D02*
X163976785Y-103728571D01*
X163833928Y-104357142D02*
X163691071Y-103928571D01*
X164062500Y-103928571D01*
%TO.C,C405*%
X201436407Y-188785714D02*
X201407836Y-188757142D01*
X201322121Y-188728571D01*
X201264978Y-188728571D01*
X201179264Y-188757142D01*
X201122121Y-188814285D01*
X201093550Y-188871428D01*
X201064978Y-188985714D01*
X201064978Y-189071428D01*
X201093550Y-189185714D01*
X201122121Y-189242857D01*
X201179264Y-189300000D01*
X201264978Y-189328571D01*
X201322121Y-189328571D01*
X201407836Y-189300000D01*
X201436407Y-189271428D01*
X201950693Y-189128571D02*
X201950693Y-188728571D01*
X201807836Y-189357142D02*
X201664978Y-188928571D01*
X202036407Y-188928571D01*
X202379264Y-189328571D02*
X202436407Y-189328571D01*
X202493550Y-189300000D01*
X202522121Y-189271428D01*
X202550693Y-189214285D01*
X202579264Y-189100000D01*
X202579264Y-188957142D01*
X202550693Y-188842857D01*
X202522121Y-188785714D01*
X202493550Y-188757142D01*
X202436407Y-188728571D01*
X202379264Y-188728571D01*
X202322121Y-188757142D01*
X202293550Y-188785714D01*
X202264978Y-188842857D01*
X202236407Y-188957142D01*
X202236407Y-189100000D01*
X202264978Y-189214285D01*
X202293550Y-189271428D01*
X202322121Y-189300000D01*
X202379264Y-189328571D01*
X203122121Y-189328571D02*
X202836407Y-189328571D01*
X202807836Y-189042857D01*
X202836407Y-189071428D01*
X202893550Y-189100000D01*
X203036407Y-189100000D01*
X203093550Y-189071428D01*
X203122121Y-189042857D01*
X203150693Y-188985714D01*
X203150693Y-188842857D01*
X203122121Y-188785714D01*
X203093550Y-188757142D01*
X203036407Y-188728571D01*
X202893550Y-188728571D01*
X202836407Y-188757142D01*
X202807836Y-188785714D01*
%TO.C,J207*%
X213771428Y-58171428D02*
X213771428Y-58600000D01*
X213800000Y-58685714D01*
X213857142Y-58742857D01*
X213942857Y-58771428D01*
X214000000Y-58771428D01*
X213514285Y-58228571D02*
X213485714Y-58200000D01*
X213428571Y-58171428D01*
X213285714Y-58171428D01*
X213228571Y-58200000D01*
X213200000Y-58228571D01*
X213171428Y-58285714D01*
X213171428Y-58342857D01*
X213200000Y-58428571D01*
X213542857Y-58771428D01*
X213171428Y-58771428D01*
X212800000Y-58171428D02*
X212742857Y-58171428D01*
X212685714Y-58200000D01*
X212657142Y-58228571D01*
X212628571Y-58285714D01*
X212600000Y-58400000D01*
X212600000Y-58542857D01*
X212628571Y-58657142D01*
X212657142Y-58714285D01*
X212685714Y-58742857D01*
X212742857Y-58771428D01*
X212800000Y-58771428D01*
X212857142Y-58742857D01*
X212885714Y-58714285D01*
X212914285Y-58657142D01*
X212942857Y-58542857D01*
X212942857Y-58400000D01*
X212914285Y-58285714D01*
X212885714Y-58228571D01*
X212857142Y-58200000D01*
X212800000Y-58171428D01*
X212400000Y-58171428D02*
X212000000Y-58171428D01*
X212257142Y-58771428D01*
%TO.C,J305*%
X213771428Y-103671428D02*
X213771428Y-104100000D01*
X213800000Y-104185714D01*
X213857142Y-104242857D01*
X213942857Y-104271428D01*
X214000000Y-104271428D01*
X213542857Y-103671428D02*
X213171428Y-103671428D01*
X213371428Y-103900000D01*
X213285714Y-103900000D01*
X213228571Y-103928571D01*
X213200000Y-103957142D01*
X213171428Y-104014285D01*
X213171428Y-104157142D01*
X213200000Y-104214285D01*
X213228571Y-104242857D01*
X213285714Y-104271428D01*
X213457142Y-104271428D01*
X213514285Y-104242857D01*
X213542857Y-104214285D01*
X212800000Y-103671428D02*
X212742857Y-103671428D01*
X212685714Y-103700000D01*
X212657142Y-103728571D01*
X212628571Y-103785714D01*
X212600000Y-103900000D01*
X212600000Y-104042857D01*
X212628571Y-104157142D01*
X212657142Y-104214285D01*
X212685714Y-104242857D01*
X212742857Y-104271428D01*
X212800000Y-104271428D01*
X212857142Y-104242857D01*
X212885714Y-104214285D01*
X212914285Y-104157142D01*
X212942857Y-104042857D01*
X212942857Y-103900000D01*
X212914285Y-103785714D01*
X212885714Y-103728571D01*
X212857142Y-103700000D01*
X212800000Y-103671428D01*
X212057142Y-103671428D02*
X212342857Y-103671428D01*
X212371428Y-103957142D01*
X212342857Y-103928571D01*
X212285714Y-103900000D01*
X212142857Y-103900000D01*
X212085714Y-103928571D01*
X212057142Y-103957142D01*
X212028571Y-104014285D01*
X212028571Y-104157142D01*
X212057142Y-104214285D01*
X212085714Y-104242857D01*
X212142857Y-104271428D01*
X212285714Y-104271428D01*
X212342857Y-104242857D01*
X212371428Y-104214285D01*
%TO.C,R316*%
X174671428Y-144271428D02*
X174871428Y-143985714D01*
X175014285Y-144271428D02*
X175014285Y-143671428D01*
X174785714Y-143671428D01*
X174728571Y-143700000D01*
X174700000Y-143728571D01*
X174671428Y-143785714D01*
X174671428Y-143871428D01*
X174700000Y-143928571D01*
X174728571Y-143957142D01*
X174785714Y-143985714D01*
X175014285Y-143985714D01*
X174471428Y-143671428D02*
X174100000Y-143671428D01*
X174300000Y-143900000D01*
X174214285Y-143900000D01*
X174157142Y-143928571D01*
X174128571Y-143957142D01*
X174100000Y-144014285D01*
X174100000Y-144157142D01*
X174128571Y-144214285D01*
X174157142Y-144242857D01*
X174214285Y-144271428D01*
X174385714Y-144271428D01*
X174442857Y-144242857D01*
X174471428Y-144214285D01*
X173528571Y-144271428D02*
X173871428Y-144271428D01*
X173700000Y-144271428D02*
X173700000Y-143671428D01*
X173757142Y-143757142D01*
X173814285Y-143814285D01*
X173871428Y-143842857D01*
X173014285Y-143671428D02*
X173128571Y-143671428D01*
X173185714Y-143700000D01*
X173214285Y-143728571D01*
X173271428Y-143814285D01*
X173300000Y-143928571D01*
X173300000Y-144157142D01*
X173271428Y-144214285D01*
X173242857Y-144242857D01*
X173185714Y-144271428D01*
X173071428Y-144271428D01*
X173014285Y-144242857D01*
X172985714Y-144214285D01*
X172957142Y-144157142D01*
X172957142Y-144014285D01*
X172985714Y-143957142D01*
X173014285Y-143928571D01*
X173071428Y-143900000D01*
X173185714Y-143900000D01*
X173242857Y-143928571D01*
X173271428Y-143957142D01*
X173300000Y-144014285D01*
%TO.C,J404*%
X162671428Y-197253571D02*
X163100000Y-197253571D01*
X163185714Y-197225000D01*
X163242857Y-197167857D01*
X163271428Y-197082142D01*
X163271428Y-197025000D01*
X162871428Y-197796428D02*
X163271428Y-197796428D01*
X162642857Y-197653571D02*
X163071428Y-197510714D01*
X163071428Y-197882142D01*
X162671428Y-198225000D02*
X162671428Y-198282142D01*
X162700000Y-198339285D01*
X162728571Y-198367857D01*
X162785714Y-198396428D01*
X162900000Y-198425000D01*
X163042857Y-198425000D01*
X163157142Y-198396428D01*
X163214285Y-198367857D01*
X163242857Y-198339285D01*
X163271428Y-198282142D01*
X163271428Y-198225000D01*
X163242857Y-198167857D01*
X163214285Y-198139285D01*
X163157142Y-198110714D01*
X163042857Y-198082142D01*
X162900000Y-198082142D01*
X162785714Y-198110714D01*
X162728571Y-198139285D01*
X162700000Y-198167857D01*
X162671428Y-198225000D01*
X162871428Y-198939285D02*
X163271428Y-198939285D01*
X162642857Y-198796428D02*
X163071428Y-198653571D01*
X163071428Y-199025000D01*
%TO.C,J408*%
X212671428Y-197253571D02*
X213100000Y-197253571D01*
X213185714Y-197225000D01*
X213242857Y-197167857D01*
X213271428Y-197082142D01*
X213271428Y-197025000D01*
X212871428Y-197796428D02*
X213271428Y-197796428D01*
X212642857Y-197653571D02*
X213071428Y-197510714D01*
X213071428Y-197882142D01*
X212671428Y-198225000D02*
X212671428Y-198282142D01*
X212700000Y-198339285D01*
X212728571Y-198367857D01*
X212785714Y-198396428D01*
X212900000Y-198425000D01*
X213042857Y-198425000D01*
X213157142Y-198396428D01*
X213214285Y-198367857D01*
X213242857Y-198339285D01*
X213271428Y-198282142D01*
X213271428Y-198225000D01*
X213242857Y-198167857D01*
X213214285Y-198139285D01*
X213157142Y-198110714D01*
X213042857Y-198082142D01*
X212900000Y-198082142D01*
X212785714Y-198110714D01*
X212728571Y-198139285D01*
X212700000Y-198167857D01*
X212671428Y-198225000D01*
X212928571Y-198767857D02*
X212900000Y-198710714D01*
X212871428Y-198682142D01*
X212814285Y-198653571D01*
X212785714Y-198653571D01*
X212728571Y-198682142D01*
X212700000Y-198710714D01*
X212671428Y-198767857D01*
X212671428Y-198882142D01*
X212700000Y-198939285D01*
X212728571Y-198967857D01*
X212785714Y-198996428D01*
X212814285Y-198996428D01*
X212871428Y-198967857D01*
X212900000Y-198939285D01*
X212928571Y-198882142D01*
X212928571Y-198767857D01*
X212957142Y-198710714D01*
X212985714Y-198682142D01*
X213042857Y-198653571D01*
X213157142Y-198653571D01*
X213214285Y-198682142D01*
X213242857Y-198710714D01*
X213271428Y-198767857D01*
X213271428Y-198882142D01*
X213242857Y-198939285D01*
X213214285Y-198967857D01*
X213157142Y-198996428D01*
X213042857Y-198996428D01*
X212985714Y-198967857D01*
X212957142Y-198939285D01*
X212928571Y-198882142D01*
%TO.C,NT401*%
X187928571Y-188757142D02*
X188528571Y-188757142D01*
X187928571Y-188414285D01*
X188528571Y-188414285D01*
X188528571Y-188214285D02*
X188528571Y-187871428D01*
X187928571Y-188042857D02*
X188528571Y-188042857D01*
X188328571Y-187414285D02*
X187928571Y-187414285D01*
X188557142Y-187557142D02*
X188128571Y-187700000D01*
X188128571Y-187328571D01*
X188528571Y-186985714D02*
X188528571Y-186928571D01*
X188500000Y-186871428D01*
X188471428Y-186842857D01*
X188414285Y-186814285D01*
X188300000Y-186785714D01*
X188157142Y-186785714D01*
X188042857Y-186814285D01*
X187985714Y-186842857D01*
X187957142Y-186871428D01*
X187928571Y-186928571D01*
X187928571Y-186985714D01*
X187957142Y-187042857D01*
X187985714Y-187071428D01*
X188042857Y-187100000D01*
X188157142Y-187128571D01*
X188300000Y-187128571D01*
X188414285Y-187100000D01*
X188471428Y-187071428D01*
X188500000Y-187042857D01*
X188528571Y-186985714D01*
X187928571Y-186214285D02*
X187928571Y-186557142D01*
X187928571Y-186385714D02*
X188528571Y-186385714D01*
X188442857Y-186442857D01*
X188385714Y-186500000D01*
X188357142Y-186557142D01*
%TO.C,NT302*%
X179257142Y-135521428D02*
X179257142Y-134921428D01*
X178914285Y-135521428D01*
X178914285Y-134921428D01*
X178714285Y-134921428D02*
X178371428Y-134921428D01*
X178542857Y-135521428D02*
X178542857Y-134921428D01*
X178228571Y-134921428D02*
X177857142Y-134921428D01*
X178057142Y-135150000D01*
X177971428Y-135150000D01*
X177914285Y-135178571D01*
X177885714Y-135207142D01*
X177857142Y-135264285D01*
X177857142Y-135407142D01*
X177885714Y-135464285D01*
X177914285Y-135492857D01*
X177971428Y-135521428D01*
X178142857Y-135521428D01*
X178200000Y-135492857D01*
X178228571Y-135464285D01*
X177485714Y-134921428D02*
X177428571Y-134921428D01*
X177371428Y-134950000D01*
X177342857Y-134978571D01*
X177314285Y-135035714D01*
X177285714Y-135150000D01*
X177285714Y-135292857D01*
X177314285Y-135407142D01*
X177342857Y-135464285D01*
X177371428Y-135492857D01*
X177428571Y-135521428D01*
X177485714Y-135521428D01*
X177542857Y-135492857D01*
X177571428Y-135464285D01*
X177600000Y-135407142D01*
X177628571Y-135292857D01*
X177628571Y-135150000D01*
X177600000Y-135035714D01*
X177571428Y-134978571D01*
X177542857Y-134950000D01*
X177485714Y-134921428D01*
X177057142Y-134978571D02*
X177028571Y-134950000D01*
X176971428Y-134921428D01*
X176828571Y-134921428D01*
X176771428Y-134950000D01*
X176742857Y-134978571D01*
X176714285Y-135035714D01*
X176714285Y-135092857D01*
X176742857Y-135178571D01*
X177085714Y-135521428D01*
X176714285Y-135521428D01*
%TO.C,R416*%
X201328571Y-177728571D02*
X201128571Y-178014285D01*
X200985714Y-177728571D02*
X200985714Y-178328571D01*
X201214285Y-178328571D01*
X201271428Y-178300000D01*
X201300000Y-178271428D01*
X201328571Y-178214285D01*
X201328571Y-178128571D01*
X201300000Y-178071428D01*
X201271428Y-178042857D01*
X201214285Y-178014285D01*
X200985714Y-178014285D01*
X201842857Y-178128571D02*
X201842857Y-177728571D01*
X201700000Y-178357142D02*
X201557142Y-177928571D01*
X201928571Y-177928571D01*
X202471428Y-177728571D02*
X202128571Y-177728571D01*
X202300000Y-177728571D02*
X202300000Y-178328571D01*
X202242857Y-178242857D01*
X202185714Y-178185714D01*
X202128571Y-178157142D01*
X202985714Y-178328571D02*
X202871428Y-178328571D01*
X202814285Y-178300000D01*
X202785714Y-178271428D01*
X202728571Y-178185714D01*
X202700000Y-178071428D01*
X202700000Y-177842857D01*
X202728571Y-177785714D01*
X202757142Y-177757142D01*
X202814285Y-177728571D01*
X202928571Y-177728571D01*
X202985714Y-177757142D01*
X203014285Y-177785714D01*
X203042857Y-177842857D01*
X203042857Y-177985714D01*
X203014285Y-178042857D01*
X202985714Y-178071428D01*
X202928571Y-178100000D01*
X202814285Y-178100000D01*
X202757142Y-178071428D01*
X202728571Y-178042857D01*
X202700000Y-177985714D01*
%TO.C,R309*%
X184421428Y-135521428D02*
X184621428Y-135235714D01*
X184764285Y-135521428D02*
X184764285Y-134921428D01*
X184535714Y-134921428D01*
X184478571Y-134950000D01*
X184450000Y-134978571D01*
X184421428Y-135035714D01*
X184421428Y-135121428D01*
X184450000Y-135178571D01*
X184478571Y-135207142D01*
X184535714Y-135235714D01*
X184764285Y-135235714D01*
X184221428Y-134921428D02*
X183850000Y-134921428D01*
X184050000Y-135150000D01*
X183964285Y-135150000D01*
X183907142Y-135178571D01*
X183878571Y-135207142D01*
X183850000Y-135264285D01*
X183850000Y-135407142D01*
X183878571Y-135464285D01*
X183907142Y-135492857D01*
X183964285Y-135521428D01*
X184135714Y-135521428D01*
X184192857Y-135492857D01*
X184221428Y-135464285D01*
X183478571Y-134921428D02*
X183421428Y-134921428D01*
X183364285Y-134950000D01*
X183335714Y-134978571D01*
X183307142Y-135035714D01*
X183278571Y-135150000D01*
X183278571Y-135292857D01*
X183307142Y-135407142D01*
X183335714Y-135464285D01*
X183364285Y-135492857D01*
X183421428Y-135521428D01*
X183478571Y-135521428D01*
X183535714Y-135492857D01*
X183564285Y-135464285D01*
X183592857Y-135407142D01*
X183621428Y-135292857D01*
X183621428Y-135150000D01*
X183592857Y-135035714D01*
X183564285Y-134978571D01*
X183535714Y-134950000D01*
X183478571Y-134921428D01*
X182992857Y-135521428D02*
X182878571Y-135521428D01*
X182821428Y-135492857D01*
X182792857Y-135464285D01*
X182735714Y-135378571D01*
X182707142Y-135264285D01*
X182707142Y-135035714D01*
X182735714Y-134978571D01*
X182764285Y-134950000D01*
X182821428Y-134921428D01*
X182935714Y-134921428D01*
X182992857Y-134950000D01*
X183021428Y-134978571D01*
X183050000Y-135035714D01*
X183050000Y-135178571D01*
X183021428Y-135235714D01*
X182992857Y-135264285D01*
X182935714Y-135292857D01*
X182821428Y-135292857D01*
X182764285Y-135264285D01*
X182735714Y-135235714D01*
X182707142Y-135178571D01*
%TO.C,C403*%
X185206407Y-188785714D02*
X185177836Y-188757142D01*
X185092121Y-188728571D01*
X185034978Y-188728571D01*
X184949264Y-188757142D01*
X184892121Y-188814285D01*
X184863550Y-188871428D01*
X184834978Y-188985714D01*
X184834978Y-189071428D01*
X184863550Y-189185714D01*
X184892121Y-189242857D01*
X184949264Y-189300000D01*
X185034978Y-189328571D01*
X185092121Y-189328571D01*
X185177836Y-189300000D01*
X185206407Y-189271428D01*
X185720693Y-189128571D02*
X185720693Y-188728571D01*
X185577836Y-189357142D02*
X185434978Y-188928571D01*
X185806407Y-188928571D01*
X186149264Y-189328571D02*
X186206407Y-189328571D01*
X186263550Y-189300000D01*
X186292121Y-189271428D01*
X186320693Y-189214285D01*
X186349264Y-189100000D01*
X186349264Y-188957142D01*
X186320693Y-188842857D01*
X186292121Y-188785714D01*
X186263550Y-188757142D01*
X186206407Y-188728571D01*
X186149264Y-188728571D01*
X186092121Y-188757142D01*
X186063550Y-188785714D01*
X186034978Y-188842857D01*
X186006407Y-188957142D01*
X186006407Y-189100000D01*
X186034978Y-189214285D01*
X186063550Y-189271428D01*
X186092121Y-189300000D01*
X186149264Y-189328571D01*
X186549264Y-189328571D02*
X186920693Y-189328571D01*
X186720693Y-189100000D01*
X186806407Y-189100000D01*
X186863550Y-189071428D01*
X186892121Y-189042857D01*
X186920693Y-188985714D01*
X186920693Y-188842857D01*
X186892121Y-188785714D01*
X186863550Y-188757142D01*
X186806407Y-188728571D01*
X186634978Y-188728571D01*
X186577836Y-188757142D01*
X186549264Y-188785714D01*
D12*
%TO.C,J206*%
X160940000Y-91760000D02*
X160940000Y-92240000D01*
X165060000Y-61760000D02*
X165060000Y-62240000D01*
X165060000Y-59940000D02*
X160940000Y-59940000D01*
X165060000Y-99760000D02*
X165060000Y-100060000D01*
X165060000Y-59940000D02*
X165060000Y-60240000D01*
X160940000Y-85760000D02*
X160940000Y-86240000D01*
X160940000Y-79760000D02*
X160940000Y-80240000D01*
X165060000Y-93760000D02*
X165060000Y-94240000D01*
X165060000Y-87760000D02*
X165060000Y-88240000D01*
X160940000Y-93760000D02*
X160940000Y-94240000D01*
X160940000Y-87760000D02*
X160940000Y-88240000D01*
X165060000Y-97760000D02*
X165060000Y-98240000D01*
X160940000Y-73760000D02*
X160940000Y-74240000D01*
X165060000Y-73760000D02*
X165060000Y-74240000D01*
X160940000Y-75760000D02*
X160940000Y-76240000D01*
X160940000Y-60240000D02*
X159000000Y-60240000D01*
X165060000Y-75760000D02*
X165060000Y-76240000D01*
X160940000Y-97760000D02*
X160940000Y-98240000D01*
X160940000Y-89760000D02*
X160940000Y-90240000D01*
X160940000Y-67760000D02*
X160940000Y-68240000D01*
X160940000Y-69760000D02*
X160940000Y-70240000D01*
X165060000Y-67760000D02*
X165060000Y-68240000D01*
X165060000Y-95760000D02*
X165060000Y-96240000D01*
X160940000Y-95760000D02*
X160940000Y-96240000D01*
X165060000Y-85760000D02*
X165060000Y-86240000D01*
X165060000Y-71760000D02*
X165060000Y-72240000D01*
X160940000Y-71760000D02*
X160940000Y-72240000D01*
X165060000Y-79760000D02*
X165060000Y-80240000D01*
X165060000Y-63760000D02*
X165060000Y-64240000D01*
X165060000Y-83760000D02*
X165060000Y-84240000D01*
X160940000Y-59940000D02*
X160940000Y-60240000D01*
X160940000Y-65760000D02*
X160940000Y-66240000D01*
X160940000Y-83760000D02*
X160940000Y-84240000D01*
X165060000Y-81760000D02*
X165060000Y-82240000D01*
X165060000Y-65760000D02*
X165060000Y-66240000D01*
X160940000Y-81760000D02*
X160940000Y-82240000D01*
X160940000Y-61760000D02*
X160940000Y-62240000D01*
X160940000Y-63760000D02*
X160940000Y-64240000D01*
X165060000Y-100060000D02*
X160940000Y-100060000D01*
X165060000Y-89760000D02*
X165060000Y-90240000D01*
X160940000Y-99760000D02*
X160940000Y-100060000D01*
X165060000Y-77760000D02*
X165060000Y-78240000D01*
X165060000Y-69760000D02*
X165060000Y-70240000D01*
X165060000Y-91760000D02*
X165060000Y-92240000D01*
X160940000Y-77760000D02*
X160940000Y-78240000D01*
D13*
X159600000Y-59750000D02*
G75*
G03*
X159600000Y-59750000I-100000J0D01*
G01*
D12*
%TO.C,R409*%
X184630000Y-187653641D02*
X184630000Y-187346359D01*
X183870000Y-187653641D02*
X183870000Y-187346359D01*
%TO.C,R415*%
X199870000Y-187653641D02*
X199870000Y-187346359D01*
X200630000Y-187653641D02*
X200630000Y-187346359D01*
%TO.C,C303*%
X187107836Y-134560000D02*
X186892164Y-134560000D01*
X187107836Y-133840000D02*
X186892164Y-133840000D01*
%TO.C,R315*%
X173653641Y-135630000D02*
X173346359Y-135630000D01*
X173653641Y-134870000D02*
X173346359Y-134870000D01*
D13*
%TO.C,R312*%
X185250000Y-137900000D02*
X189750000Y-137900000D01*
X189750000Y-143100000D02*
X185250000Y-143100000D01*
X189750000Y-137900000D02*
X189750000Y-137900000D01*
X185250000Y-137900000D02*
X185250000Y-137900000D01*
X185250000Y-143100000D02*
X189750000Y-143100000D01*
D14*
X193600000Y-140500000D02*
X193600000Y-140500000D01*
D13*
X189750000Y-143100000D02*
X189750000Y-143100000D01*
X185250000Y-143100000D02*
X185250000Y-143100000D01*
D14*
X193700000Y-140500000D02*
X193700000Y-140500000D01*
X193700000Y-140500000D02*
X193700000Y-140500000D01*
D13*
X189750000Y-137900000D02*
X185250000Y-137900000D01*
D14*
X193700000Y-140500000D02*
G75*
G03*
X193600000Y-140500000I-50000J0D01*
G01*
X193600000Y-140500000D02*
G75*
G03*
X193700000Y-140500000I50000J0D01*
G01*
X193600000Y-140500000D02*
G75*
G03*
X193700000Y-140500000I50000J0D01*
G01*
D12*
%TO.C,C305*%
X174607836Y-134610000D02*
X174392164Y-134610000D01*
X174607836Y-133890000D02*
X174392164Y-133890000D01*
D13*
%TO.C,R412*%
X187250000Y-185000000D02*
X187250000Y-185000000D01*
D14*
X191200000Y-182400000D02*
X191200000Y-182400000D01*
D13*
X182750000Y-185000000D02*
X182750000Y-185000000D01*
X187250000Y-179800000D02*
X182750000Y-179800000D01*
X187250000Y-185000000D02*
X182750000Y-185000000D01*
D14*
X191200000Y-182400000D02*
X191200000Y-182400000D01*
D13*
X182750000Y-179800000D02*
X187250000Y-179800000D01*
X182750000Y-179800000D02*
X182750000Y-179800000D01*
D14*
X191100000Y-182400000D02*
X191100000Y-182400000D01*
D13*
X187250000Y-179800000D02*
X187250000Y-179800000D01*
X182750000Y-185000000D02*
X187250000Y-185000000D01*
D14*
X191200000Y-182400000D02*
G75*
G03*
X191100000Y-182400000I-50000J0D01*
G01*
X191100000Y-182400000D02*
G75*
G03*
X191200000Y-182400000I50000J0D01*
G01*
X191100000Y-182400000D02*
G75*
G03*
X191200000Y-182400000I50000J0D01*
G01*
%TO.C,J304*%
X161000000Y-145000000D02*
X165000000Y-145000000D01*
X161000000Y-105000000D02*
X165000000Y-105000000D01*
D12*
%TO.C,C405*%
X202107836Y-187640000D02*
X201892164Y-187640000D01*
X202107836Y-188360000D02*
X201892164Y-188360000D01*
%TO.C,J207*%
X215060000Y-77760000D02*
X215060000Y-78240000D01*
X215060000Y-61760000D02*
X215060000Y-62240000D01*
X215060000Y-95760000D02*
X215060000Y-96240000D01*
X215060000Y-67760000D02*
X215060000Y-68240000D01*
X215060000Y-83760000D02*
X215060000Y-84240000D01*
X215060000Y-73760000D02*
X215060000Y-74240000D01*
X210940000Y-67760000D02*
X210940000Y-68240000D01*
X210940000Y-79760000D02*
X210940000Y-80240000D01*
X215060000Y-89760000D02*
X215060000Y-90240000D01*
X210940000Y-99760000D02*
X210940000Y-100060000D01*
X210940000Y-77760000D02*
X210940000Y-78240000D01*
X215060000Y-75760000D02*
X215060000Y-76240000D01*
X215060000Y-85760000D02*
X215060000Y-86240000D01*
X210940000Y-87760000D02*
X210940000Y-88240000D01*
X210940000Y-93760000D02*
X210940000Y-94240000D01*
X215060000Y-71760000D02*
X215060000Y-72240000D01*
X215060000Y-63760000D02*
X215060000Y-64240000D01*
X215060000Y-79760000D02*
X215060000Y-80240000D01*
X215060000Y-91760000D02*
X215060000Y-92240000D01*
X210940000Y-59940000D02*
X210940000Y-60240000D01*
X215060000Y-65760000D02*
X215060000Y-66240000D01*
X210940000Y-71760000D02*
X210940000Y-72240000D01*
X215060000Y-59940000D02*
X215060000Y-60240000D01*
X215060000Y-100060000D02*
X210940000Y-100060000D01*
X215060000Y-87760000D02*
X215060000Y-88240000D01*
X215060000Y-81760000D02*
X215060000Y-82240000D01*
X215060000Y-99760000D02*
X215060000Y-100060000D01*
X210940000Y-83760000D02*
X210940000Y-84240000D01*
X210940000Y-73760000D02*
X210940000Y-74240000D01*
X215060000Y-97760000D02*
X215060000Y-98240000D01*
X210940000Y-97760000D02*
X210940000Y-98240000D01*
X210940000Y-63760000D02*
X210940000Y-64240000D01*
X210940000Y-91760000D02*
X210940000Y-92240000D01*
X210940000Y-81760000D02*
X210940000Y-82240000D01*
X210940000Y-60240000D02*
X209000000Y-60240000D01*
X210940000Y-75760000D02*
X210940000Y-76240000D01*
X210940000Y-89760000D02*
X210940000Y-90240000D01*
X215060000Y-59940000D02*
X210940000Y-59940000D01*
X210940000Y-95760000D02*
X210940000Y-96240000D01*
X215060000Y-69760000D02*
X215060000Y-70240000D01*
X210940000Y-65760000D02*
X210940000Y-66240000D01*
X215060000Y-93760000D02*
X215060000Y-94240000D01*
X210940000Y-69760000D02*
X210940000Y-70240000D01*
X210940000Y-61760000D02*
X210940000Y-62240000D01*
X210940000Y-85760000D02*
X210940000Y-86240000D01*
D13*
X209600000Y-59750000D02*
G75*
G03*
X209600000Y-59750000I-100000J0D01*
G01*
D12*
%TO.C,J305*%
X215060000Y-116760000D02*
X215060000Y-117240000D01*
X215060000Y-104940000D02*
X210940000Y-104940000D01*
X210940000Y-140760000D02*
X210940000Y-141240000D01*
X210940000Y-142760000D02*
X210940000Y-143240000D01*
X210940000Y-110760000D02*
X210940000Y-111240000D01*
X210940000Y-136760000D02*
X210940000Y-137240000D01*
X215060000Y-108760000D02*
X215060000Y-109240000D01*
X215060000Y-128760000D02*
X215060000Y-129240000D01*
X215060000Y-134760000D02*
X215060000Y-135240000D01*
X210940000Y-126760000D02*
X210940000Y-127240000D01*
X215060000Y-120760000D02*
X215060000Y-121240000D01*
X215060000Y-110760000D02*
X215060000Y-111240000D01*
X210940000Y-130760000D02*
X210940000Y-131240000D01*
X210940000Y-114760000D02*
X210940000Y-115240000D01*
X215060000Y-104940000D02*
X215060000Y-105240000D01*
X210940000Y-124760000D02*
X210940000Y-125240000D01*
X210940000Y-138760000D02*
X210940000Y-139240000D01*
X215060000Y-124760000D02*
X215060000Y-125240000D01*
X215060000Y-132760000D02*
X215060000Y-133240000D01*
X215060000Y-130760000D02*
X215060000Y-131240000D01*
X210940000Y-122760000D02*
X210940000Y-123240000D01*
X215060000Y-138760000D02*
X215060000Y-139240000D01*
X210940000Y-104940000D02*
X210940000Y-105240000D01*
X210940000Y-108760000D02*
X210940000Y-109240000D01*
X215060000Y-112760000D02*
X215060000Y-113240000D01*
X210940000Y-134760000D02*
X210940000Y-135240000D01*
X210940000Y-132760000D02*
X210940000Y-133240000D01*
X210940000Y-105240000D02*
X209000000Y-105240000D01*
X215060000Y-144760000D02*
X215060000Y-145060000D01*
X210940000Y-128760000D02*
X210940000Y-129240000D01*
X215060000Y-142760000D02*
X215060000Y-143240000D01*
X215060000Y-126760000D02*
X215060000Y-127240000D01*
X215060000Y-145060000D02*
X210940000Y-145060000D01*
X210940000Y-144760000D02*
X210940000Y-145060000D01*
X215060000Y-122760000D02*
X215060000Y-123240000D01*
X210940000Y-120760000D02*
X210940000Y-121240000D01*
X215060000Y-106760000D02*
X215060000Y-107240000D01*
X215060000Y-118760000D02*
X215060000Y-119240000D01*
X210940000Y-116760000D02*
X210940000Y-117240000D01*
X210940000Y-112760000D02*
X210940000Y-113240000D01*
X215060000Y-136760000D02*
X215060000Y-137240000D01*
X215060000Y-114760000D02*
X215060000Y-115240000D01*
X210940000Y-106760000D02*
X210940000Y-107240000D01*
X215060000Y-140760000D02*
X215060000Y-141240000D01*
X210940000Y-118760000D02*
X210940000Y-119240000D01*
D13*
X209600000Y-104750000D02*
G75*
G03*
X209600000Y-104750000I-100000J0D01*
G01*
D14*
%TO.C,R316*%
X180100000Y-140500000D02*
X180100000Y-140500000D01*
D13*
X176250000Y-143100000D02*
X176250000Y-143100000D01*
X176250000Y-137900000D02*
X171750000Y-137900000D01*
D14*
X180200000Y-140500000D02*
X180200000Y-140500000D01*
D13*
X176250000Y-143100000D02*
X171750000Y-143100000D01*
X171750000Y-137900000D02*
X171750000Y-137900000D01*
D14*
X180200000Y-140500000D02*
X180200000Y-140500000D01*
D13*
X176250000Y-137900000D02*
X176250000Y-137900000D01*
X171750000Y-137900000D02*
X176250000Y-137900000D01*
X171750000Y-143100000D02*
X176250000Y-143100000D01*
X171750000Y-143100000D02*
X171750000Y-143100000D01*
D14*
X180200000Y-140500000D02*
G75*
G03*
X180100000Y-140500000I-50000J0D01*
G01*
X180100000Y-140500000D02*
G75*
G03*
X180200000Y-140500000I50000J0D01*
G01*
X180100000Y-140500000D02*
G75*
G03*
X180200000Y-140500000I50000J0D01*
G01*
%TO.C,J404*%
X165000000Y-178000000D02*
X161000000Y-178000000D01*
X165000000Y-218000000D02*
X161000000Y-218000000D01*
%TO.C,J408*%
X215000000Y-178000000D02*
X211000000Y-178000000D01*
X215000000Y-218000000D02*
X211000000Y-218000000D01*
D13*
%TO.C,R416*%
X204250000Y-179650000D02*
X199750000Y-179650000D01*
D14*
X208200000Y-182250000D02*
X208200000Y-182250000D01*
D13*
X199750000Y-184850000D02*
X204250000Y-184850000D01*
X204250000Y-179650000D02*
X204250000Y-179650000D01*
D14*
X208200000Y-182250000D02*
X208200000Y-182250000D01*
D13*
X204250000Y-184850000D02*
X204250000Y-184850000D01*
X199750000Y-179650000D02*
X199750000Y-179650000D01*
X199750000Y-184850000D02*
X199750000Y-184850000D01*
D14*
X208100000Y-182250000D02*
X208100000Y-182250000D01*
D13*
X204250000Y-184850000D02*
X199750000Y-184850000D01*
X199750000Y-179650000D02*
X204250000Y-179650000D01*
D14*
X208100000Y-182250000D02*
G75*
G03*
X208200000Y-182250000I50000J0D01*
G01*
X208100000Y-182250000D02*
G75*
G03*
X208200000Y-182250000I50000J0D01*
G01*
X208200000Y-182250000D02*
G75*
G03*
X208100000Y-182250000I-50000J0D01*
G01*
D12*
%TO.C,R309*%
X186153641Y-135630000D02*
X185846359Y-135630000D01*
X186153641Y-134870000D02*
X185846359Y-134870000D01*
%TO.C,C403*%
X185877836Y-187640000D02*
X185662164Y-187640000D01*
X185877836Y-188360000D02*
X185662164Y-188360000D01*
%TD*%
M02*
