%TF.GenerationSoftware,KiCad,Pcbnew,(6.0.10)*%
%TF.CreationDate,2023-04-24T21:45:00+09:00*%
%TF.ProjectId,qdrive_hw,71647269-7665-45f6-9877-2e6b69636164,rev?*%
%TF.SameCoordinates,Original*%
%TF.FileFunction,Soldermask,Bot*%
%TF.FilePolarity,Negative*%
%FSLAX46Y46*%
G04 Gerber Fmt 4.6, Leading zero omitted, Abs format (unit mm)*
G04 Created by KiCad (PCBNEW (6.0.10)) date 2023-04-24 21:45:00*
%MOMM*%
%LPD*%
G01*
G04 APERTURE LIST*
G04 Aperture macros list*
%AMRoundRect*
0 Rectangle with rounded corners*
0 $1 Rounding radius*
0 $2 $3 $4 $5 $6 $7 $8 $9 X,Y pos of 4 corners*
0 Add a 4 corners polygon primitive as box body*
4,1,4,$2,$3,$4,$5,$6,$7,$8,$9,$2,$3,0*
0 Add four circle primitives for the rounded corners*
1,1,$1+$1,$2,$3*
1,1,$1+$1,$4,$5*
1,1,$1+$1,$6,$7*
1,1,$1+$1,$8,$9*
0 Add four rect primitives between the rounded corners*
20,1,$1+$1,$2,$3,$4,$5,0*
20,1,$1+$1,$4,$5,$6,$7,0*
20,1,$1+$1,$6,$7,$8,$9,0*
20,1,$1+$1,$8,$9,$2,$3,0*%
G04 Aperture macros list end*
%ADD10C,0.100000*%
%ADD11C,0.200000*%
%ADD12C,0.850000*%
%ADD13RoundRect,0.250000X-1.750000X1.750000X-1.750000X-1.750000X1.750000X-1.750000X1.750000X1.750000X0*%
%ADD14RoundRect,0.250000X-1.750000X-1.750000X1.750000X-1.750000X1.750000X1.750000X-1.750000X1.750000X0*%
%ADD15C,0.500000*%
%ADD16RoundRect,0.250000X1.750000X1.750000X-1.750000X1.750000X-1.750000X-1.750000X1.750000X-1.750000X0*%
%ADD17C,4.000000*%
%ADD18C,0.520000*%
%ADD19C,0.890000*%
%ADD20C,1.460000*%
%ADD21C,5.700000*%
%ADD22C,3.600000*%
%ADD23R,1.700000X1.700000*%
%ADD24O,1.700000X1.700000*%
%ADD25C,1.050000*%
%ADD26R,2.500000X1.000000*%
%ADD27RoundRect,0.135000X0.185000X-0.135000X0.185000X0.135000X-0.185000X0.135000X-0.185000X-0.135000X0*%
%ADD28RoundRect,0.140000X0.140000X0.170000X-0.140000X0.170000X-0.140000X-0.170000X0.140000X-0.170000X0*%
%ADD29RoundRect,0.135000X0.135000X0.185000X-0.135000X0.185000X-0.135000X-0.185000X0.135000X-0.185000X0*%
%ADD30R,2.700000X6.200000*%
G04 APERTURE END LIST*
D10*
G36*
X217800000Y-167400000D02*
G01*
X217800000Y-171600000D01*
X217400000Y-172000000D01*
X166000000Y-172000000D01*
X165600000Y-171600000D01*
X165600000Y-167400000D01*
X166000000Y-167000000D01*
X217200000Y-166800000D01*
X217800000Y-167400000D01*
G37*
X217800000Y-167400000D02*
X217800000Y-171600000D01*
X217400000Y-172000000D01*
X166000000Y-172000000D01*
X165600000Y-171600000D01*
X165600000Y-167400000D01*
X166000000Y-167000000D01*
X217200000Y-166800000D01*
X217800000Y-167400000D01*
D11*
G36*
X217600000Y-151400000D02*
G01*
X217600000Y-156000000D01*
X217200000Y-156457366D01*
X166800000Y-156057366D01*
X166400000Y-155657366D01*
X166400000Y-151457366D01*
X166800000Y-151057366D01*
X217200000Y-151000000D01*
X217600000Y-151400000D01*
G37*
X217600000Y-151400000D02*
X217600000Y-156000000D01*
X217200000Y-156457366D01*
X166800000Y-156057366D01*
X166400000Y-155657366D01*
X166400000Y-151457366D01*
X166800000Y-151057366D01*
X217200000Y-151000000D01*
X217600000Y-151400000D01*
D12*
%TO.C,J204*%
X163000000Y-60000000D03*
X163000000Y-100000000D03*
%TD*%
D13*
%TO.C,J306*%
X185000000Y-159000000D03*
%TD*%
D14*
%TO.C,J401*%
X179200000Y-164100000D03*
%TD*%
D15*
%TO.C,U401*%
X187300000Y-202800000D03*
X188700000Y-204400000D03*
X190800000Y-202800000D03*
X185200000Y-205200000D03*
X190100000Y-204400000D03*
X186600000Y-204400000D03*
X189400000Y-203600000D03*
X189400000Y-204400000D03*
X190800000Y-205200000D03*
X190800000Y-204400000D03*
X188000000Y-202800000D03*
X189400000Y-205200000D03*
X187300000Y-205200000D03*
X190100000Y-203600000D03*
X190100000Y-205200000D03*
X185900000Y-205200000D03*
X190100000Y-202800000D03*
X185900000Y-204400000D03*
X188000000Y-203600000D03*
X186600000Y-202800000D03*
X185900000Y-203600000D03*
X185900000Y-202800000D03*
X186600000Y-205200000D03*
X185200000Y-203600000D03*
X188700000Y-203600000D03*
X187300000Y-203600000D03*
X186600000Y-203600000D03*
X189400000Y-202800000D03*
X190800000Y-203600000D03*
X185200000Y-204400000D03*
X187300000Y-204400000D03*
X188000000Y-204400000D03*
X185200000Y-202800000D03*
X188000000Y-205200000D03*
X188700000Y-202800000D03*
X188700000Y-205200000D03*
%TD*%
D16*
%TO.C,J302*%
X215500000Y-153500000D03*
%TD*%
D14*
%TO.C,J307*%
X179200000Y-159000000D03*
%TD*%
D17*
%TO.C,J203*%
X206200000Y-50700000D03*
X211280000Y-50700000D03*
%TD*%
D18*
%TO.C,J201*%
X183000000Y-54350000D03*
D19*
X183000000Y-46850000D03*
D20*
X180850000Y-53000000D03*
X180850000Y-48200000D03*
X185150000Y-48200000D03*
X185150000Y-53000000D03*
%TD*%
D14*
%TO.C,J309*%
X215500000Y-147500000D03*
%TD*%
%TO.C,J409*%
X215250000Y-175500000D03*
%TD*%
D21*
%TO.C,H401*%
X175000000Y-202000000D03*
%TD*%
D22*
%TO.C,H203*%
X158000000Y-51000000D03*
D21*
X158000000Y-51000000D03*
%TD*%
D14*
%TO.C,J403*%
X190800000Y-164000000D03*
%TD*%
D23*
%TO.C,J208*%
X176875000Y-52200000D03*
D24*
X174335000Y-52200000D03*
X176875000Y-49660000D03*
X174335000Y-49660000D03*
X176875000Y-47120000D03*
X174335000Y-47120000D03*
%TD*%
D25*
%TO.C,J205*%
X213000000Y-62000000D03*
X213000000Y-98000000D03*
%TD*%
D21*
%TO.C,H204*%
X218000000Y-51000000D03*
D22*
X218000000Y-51000000D03*
%TD*%
D14*
%TO.C,J402*%
X185000000Y-164100000D03*
%TD*%
D15*
%TO.C,U301*%
X184900000Y-116800000D03*
X184200000Y-117600000D03*
X186300000Y-117600000D03*
X187700000Y-119200000D03*
X188400000Y-118400000D03*
X185600000Y-116800000D03*
X184200000Y-116800000D03*
X187700000Y-117600000D03*
X188400000Y-117600000D03*
X187000000Y-119200000D03*
X187700000Y-116800000D03*
X184200000Y-119200000D03*
X189800000Y-117600000D03*
X184200000Y-118400000D03*
X184900000Y-118400000D03*
X185600000Y-118400000D03*
X187700000Y-118400000D03*
X189800000Y-119200000D03*
X184900000Y-117600000D03*
X185600000Y-119200000D03*
X187000000Y-116800000D03*
X186300000Y-116800000D03*
X185600000Y-117600000D03*
X189100000Y-119200000D03*
X189100000Y-117600000D03*
X188400000Y-116800000D03*
X189800000Y-116800000D03*
X189800000Y-118400000D03*
X189100000Y-116800000D03*
X186300000Y-118400000D03*
X186300000Y-119200000D03*
X187000000Y-117600000D03*
X184900000Y-119200000D03*
X187000000Y-118400000D03*
X188400000Y-119200000D03*
X189100000Y-118400000D03*
%TD*%
D16*
%TO.C,J405*%
X215250000Y-169500000D03*
%TD*%
D22*
%TO.C,H402*%
X201000000Y-202000000D03*
D21*
X201000000Y-202000000D03*
%TD*%
D16*
%TO.C,J301*%
X190800000Y-159000000D03*
%TD*%
D23*
%TO.C,J210*%
X176000000Y-100500000D03*
D24*
X178540000Y-100500000D03*
X181080000Y-100500000D03*
X183620000Y-100500000D03*
X186160000Y-100500000D03*
X188700000Y-100500000D03*
X191240000Y-100500000D03*
%TD*%
D12*
%TO.C,J206*%
X163000000Y-100000000D03*
X163000000Y-60000000D03*
D26*
X160750000Y-61000000D03*
X165250000Y-61000000D03*
X160750000Y-63000000D03*
X165250000Y-63000000D03*
X160750000Y-65000000D03*
X165250000Y-65000000D03*
X160750000Y-67000000D03*
X165250000Y-67000000D03*
X160750000Y-69000000D03*
X165250000Y-69000000D03*
X160750000Y-71000000D03*
X165250000Y-71000000D03*
X160750000Y-73000000D03*
X165250000Y-73000000D03*
X160750000Y-75000000D03*
X165250000Y-75000000D03*
X160750000Y-77000000D03*
X165250000Y-77000000D03*
X160750000Y-79000000D03*
X165250000Y-79000000D03*
X160750000Y-81000000D03*
X165250000Y-81000000D03*
X160750000Y-83000000D03*
X165250000Y-83000000D03*
X160750000Y-85000000D03*
X165250000Y-85000000D03*
X160750000Y-87000000D03*
X165250000Y-87000000D03*
X160750000Y-89000000D03*
X165250000Y-89000000D03*
X160750000Y-91000000D03*
X165250000Y-91000000D03*
X160750000Y-93000000D03*
X165250000Y-93000000D03*
X160750000Y-95000000D03*
X165250000Y-95000000D03*
X160750000Y-97000000D03*
X165250000Y-97000000D03*
X160750000Y-99000000D03*
X165250000Y-99000000D03*
%TD*%
D27*
%TO.C,R409*%
X184250000Y-188010000D03*
X184250000Y-186990000D03*
%TD*%
%TO.C,R415*%
X200250000Y-188010000D03*
X200250000Y-186990000D03*
%TD*%
D28*
%TO.C,C303*%
X187480000Y-134200000D03*
X186520000Y-134200000D03*
%TD*%
D29*
%TO.C,R315*%
X174010000Y-135250000D03*
X172990000Y-135250000D03*
%TD*%
D30*
%TO.C,R312*%
X191650000Y-140500000D03*
X183350000Y-140500000D03*
%TD*%
D28*
%TO.C,C305*%
X174980000Y-134250000D03*
X174020000Y-134250000D03*
%TD*%
D30*
%TO.C,R412*%
X189150000Y-182400000D03*
X180850000Y-182400000D03*
%TD*%
D25*
%TO.C,J304*%
X163000000Y-107000000D03*
X163000000Y-143000000D03*
D26*
X165125000Y-106000000D03*
X160875000Y-106000000D03*
X165125000Y-108000000D03*
X160875000Y-108000000D03*
X165125000Y-110000000D03*
X160875000Y-110000000D03*
X165125000Y-112000000D03*
X160875000Y-112000000D03*
X165125000Y-114000000D03*
X160875000Y-114000000D03*
X165125000Y-116000000D03*
X160875000Y-116000000D03*
X165125000Y-118000000D03*
X160875000Y-118000000D03*
X165125000Y-120000000D03*
X160875000Y-120000000D03*
X165125000Y-122000000D03*
X160875000Y-122000000D03*
X165125000Y-124000000D03*
X160875000Y-124000000D03*
X165125000Y-126000000D03*
X160875000Y-126000000D03*
X165125000Y-128000000D03*
X160875000Y-128000000D03*
X165125000Y-130000000D03*
X160875000Y-130000000D03*
X165125000Y-132000000D03*
X160875000Y-132000000D03*
X165125000Y-134000000D03*
X160875000Y-134000000D03*
X165125000Y-136000000D03*
X160875000Y-136000000D03*
X165125000Y-138000000D03*
X160875000Y-138000000D03*
X165125000Y-140000000D03*
X160875000Y-140000000D03*
X165125000Y-142000000D03*
X160875000Y-142000000D03*
X165125000Y-144000000D03*
X160875000Y-144000000D03*
%TD*%
D28*
%TO.C,C405*%
X202480000Y-188000000D03*
X201520000Y-188000000D03*
%TD*%
D12*
%TO.C,J207*%
X213000000Y-60000000D03*
X213000000Y-100000000D03*
D26*
X210750000Y-61000000D03*
X215250000Y-61000000D03*
X210750000Y-63000000D03*
X215250000Y-63000000D03*
X210750000Y-65000000D03*
X215250000Y-65000000D03*
X210750000Y-67000000D03*
X215250000Y-67000000D03*
X210750000Y-69000000D03*
X215250000Y-69000000D03*
X210750000Y-71000000D03*
X215250000Y-71000000D03*
X210750000Y-73000000D03*
X215250000Y-73000000D03*
X210750000Y-75000000D03*
X215250000Y-75000000D03*
X210750000Y-77000000D03*
X215250000Y-77000000D03*
X210750000Y-79000000D03*
X215250000Y-79000000D03*
X210750000Y-81000000D03*
X215250000Y-81000000D03*
X210750000Y-83000000D03*
X215250000Y-83000000D03*
X210750000Y-85000000D03*
X215250000Y-85000000D03*
X210750000Y-87000000D03*
X215250000Y-87000000D03*
X210750000Y-89000000D03*
X215250000Y-89000000D03*
X210750000Y-91000000D03*
X215250000Y-91000000D03*
X210750000Y-93000000D03*
X215250000Y-93000000D03*
X210750000Y-95000000D03*
X215250000Y-95000000D03*
X210750000Y-97000000D03*
X215250000Y-97000000D03*
X210750000Y-99000000D03*
X215250000Y-99000000D03*
%TD*%
D12*
%TO.C,J305*%
X213000000Y-105000000D03*
X213000000Y-145000000D03*
D26*
X210750000Y-106000000D03*
X215250000Y-106000000D03*
X210750000Y-108000000D03*
X215250000Y-108000000D03*
X210750000Y-110000000D03*
X215250000Y-110000000D03*
X210750000Y-112000000D03*
X215250000Y-112000000D03*
X210750000Y-114000000D03*
X215250000Y-114000000D03*
X210750000Y-116000000D03*
X215250000Y-116000000D03*
X210750000Y-118000000D03*
X215250000Y-118000000D03*
X210750000Y-120000000D03*
X215250000Y-120000000D03*
X210750000Y-122000000D03*
X215250000Y-122000000D03*
X210750000Y-124000000D03*
X215250000Y-124000000D03*
X210750000Y-126000000D03*
X215250000Y-126000000D03*
X210750000Y-128000000D03*
X215250000Y-128000000D03*
X210750000Y-130000000D03*
X215250000Y-130000000D03*
X210750000Y-132000000D03*
X215250000Y-132000000D03*
X210750000Y-134000000D03*
X215250000Y-134000000D03*
X210750000Y-136000000D03*
X215250000Y-136000000D03*
X210750000Y-138000000D03*
X215250000Y-138000000D03*
X210750000Y-140000000D03*
X215250000Y-140000000D03*
X210750000Y-142000000D03*
X215250000Y-142000000D03*
X210750000Y-144000000D03*
X215250000Y-144000000D03*
%TD*%
D30*
%TO.C,R316*%
X178150000Y-140500000D03*
X169850000Y-140500000D03*
%TD*%
D25*
%TO.C,J404*%
X163000000Y-180000000D03*
X163000000Y-216000000D03*
D26*
X160875000Y-217000000D03*
X165125000Y-217000000D03*
X160875000Y-215000000D03*
X165125000Y-215000000D03*
X160875000Y-213000000D03*
X165125000Y-213000000D03*
X160875000Y-211000000D03*
X165125000Y-211000000D03*
X160875000Y-209000000D03*
X165125000Y-209000000D03*
X160875000Y-207000000D03*
X165125000Y-207000000D03*
X160875000Y-205000000D03*
X165125000Y-205000000D03*
X160875000Y-203000000D03*
X165125000Y-203000000D03*
X160875000Y-201000000D03*
X165125000Y-201000000D03*
X160875000Y-199000000D03*
X165125000Y-199000000D03*
X160875000Y-197000000D03*
X165125000Y-197000000D03*
X160875000Y-195000000D03*
X165125000Y-195000000D03*
X160875000Y-193000000D03*
X165125000Y-193000000D03*
X160875000Y-191000000D03*
X165125000Y-191000000D03*
X160875000Y-189000000D03*
X165125000Y-189000000D03*
X160875000Y-187000000D03*
X165125000Y-187000000D03*
X160875000Y-185000000D03*
X165125000Y-185000000D03*
X160875000Y-183000000D03*
X165125000Y-183000000D03*
X160875000Y-181000000D03*
X165125000Y-181000000D03*
X160875000Y-179000000D03*
X165125000Y-179000000D03*
%TD*%
D25*
%TO.C,J408*%
X213000000Y-180000000D03*
X213000000Y-216000000D03*
D26*
X210875000Y-217000000D03*
X215125000Y-217000000D03*
X210875000Y-215000000D03*
X215125000Y-215000000D03*
X210875000Y-213000000D03*
X215125000Y-213000000D03*
X210875000Y-211000000D03*
X215125000Y-211000000D03*
X210875000Y-209000000D03*
X215125000Y-209000000D03*
X210875000Y-207000000D03*
X215125000Y-207000000D03*
X210875000Y-205000000D03*
X215125000Y-205000000D03*
X210875000Y-203000000D03*
X215125000Y-203000000D03*
X210875000Y-201000000D03*
X215125000Y-201000000D03*
X210875000Y-199000000D03*
X215125000Y-199000000D03*
X210875000Y-197000000D03*
X215125000Y-197000000D03*
X210875000Y-195000000D03*
X215125000Y-195000000D03*
X210875000Y-193000000D03*
X215125000Y-193000000D03*
X210875000Y-191000000D03*
X215125000Y-191000000D03*
X210875000Y-189000000D03*
X215125000Y-189000000D03*
X210875000Y-187000000D03*
X215125000Y-187000000D03*
X210875000Y-185000000D03*
X215125000Y-185000000D03*
X210875000Y-183000000D03*
X215125000Y-183000000D03*
X210875000Y-181000000D03*
X215125000Y-181000000D03*
X210875000Y-179000000D03*
X215125000Y-179000000D03*
%TD*%
D30*
%TO.C,R416*%
X206150000Y-182250000D03*
X197850000Y-182250000D03*
%TD*%
D29*
%TO.C,R309*%
X186510000Y-135250000D03*
X185490000Y-135250000D03*
%TD*%
D28*
%TO.C,C403*%
X186250000Y-188000000D03*
X185290000Y-188000000D03*
%TD*%
M02*
