%TF.GenerationSoftware,KiCad,Pcbnew,(6.0.10)*%
%TF.CreationDate,2023-04-24T21:45:00+09:00*%
%TF.ProjectId,qdrive_hw,71647269-7665-45f6-9877-2e6b69636164,rev?*%
%TF.SameCoordinates,Original*%
%TF.FileFunction,Profile,NP*%
%FSLAX46Y46*%
G04 Gerber Fmt 4.6, Leading zero omitted, Abs format (unit mm)*
G04 Created by KiCad (PCBNEW (6.0.10)) date 2023-04-24 21:45:00*
%MOMM*%
%LPD*%
G01*
G04 APERTURE LIST*
%TA.AperFunction,Profile*%
%ADD10C,0.100000*%
%TD*%
G04 APERTURE END LIST*
D10*
X218000000Y-162500000D02*
X217000000Y-161500000D01*
X216000000Y-220000000D02*
G75*
G03*
X218000000Y-218000000I0J2000000D01*
G01*
X218000000Y-105000000D02*
X218000000Y-160500000D01*
X218000000Y-101000000D02*
X216000000Y-103000000D01*
X160000000Y-45000000D02*
X216000000Y-45000000D01*
X158000000Y-105000000D02*
X160000000Y-103000000D01*
X217000000Y-161500000D02*
X218000000Y-160500000D01*
X216000000Y-103000000D02*
X218000000Y-105000000D01*
X158000000Y-163000000D02*
X158000000Y-218000000D01*
X159500000Y-161500000D02*
X158000000Y-160000000D01*
X158000000Y-218000000D02*
G75*
G03*
X160000000Y-220000000I2000000J0D01*
G01*
X218000000Y-218000000D02*
X218000000Y-162500000D01*
X160000000Y-103000000D02*
X158000000Y-101000000D01*
X218000000Y-47000000D02*
G75*
G03*
X216000000Y-45000000I-2000000J0D01*
G01*
X160000000Y-220000000D02*
X216000000Y-220000000D01*
X158000000Y-101000000D02*
X158000000Y-47000000D01*
X159500000Y-161500000D02*
X158000000Y-163000000D01*
X160000000Y-45000000D02*
G75*
G03*
X158000000Y-47000000I0J-2000000D01*
G01*
X218000000Y-47000000D02*
X218000000Y-101000000D01*
X158000000Y-160000000D02*
X158000000Y-105000000D01*
X159666666Y-45000000D02*
G75*
G03*
X159666666Y-45000000I-1666666J0D01*
G01*
X155500000Y-45000000D02*
X160500000Y-45000000D01*
X158000000Y-42500000D02*
X158000000Y-47500000D01*
M02*
