%TF.GenerationSoftware,KiCad,Pcbnew,(6.0.10)*%
%TF.CreationDate,2023-04-24T21:45:00+09:00*%
%TF.ProjectId,qdrive_hw,71647269-7665-45f6-9877-2e6b69636164,rev?*%
%TF.SameCoordinates,Original*%
%TF.FileFunction,Paste,Top*%
%TF.FilePolarity,Positive*%
%FSLAX46Y46*%
G04 Gerber Fmt 4.6, Leading zero omitted, Abs format (unit mm)*
G04 Created by KiCad (PCBNEW (6.0.10)) date 2023-04-24 21:45:00*
%MOMM*%
%LPD*%
G01*
G04 APERTURE LIST*
G04 Aperture macros list*
%AMRoundRect*
0 Rectangle with rounded corners*
0 $1 Rounding radius*
0 $2 $3 $4 $5 $6 $7 $8 $9 X,Y pos of 4 corners*
0 Add a 4 corners polygon primitive as box body*
4,1,4,$2,$3,$4,$5,$6,$7,$8,$9,$2,$3,0*
0 Add four circle primitives for the rounded corners*
1,1,$1+$1,$2,$3*
1,1,$1+$1,$4,$5*
1,1,$1+$1,$6,$7*
1,1,$1+$1,$8,$9*
0 Add four rect primitives between the rounded corners*
20,1,$1+$1,$2,$3,$4,$5,0*
20,1,$1+$1,$4,$5,$6,$7,0*
20,1,$1+$1,$6,$7,$8,$9,0*
20,1,$1+$1,$8,$9,$2,$3,0*%
G04 Aperture macros list end*
%ADD10C,0.010000*%
%ADD11RoundRect,0.250000X-0.325000X-1.100000X0.325000X-1.100000X0.325000X1.100000X-0.325000X1.100000X0*%
%ADD12RoundRect,0.140000X0.170000X-0.140000X0.170000X0.140000X-0.170000X0.140000X-0.170000X-0.140000X0*%
%ADD13R,1.200000X2.000000*%
%ADD14RoundRect,0.140000X-0.140000X-0.170000X0.140000X-0.170000X0.140000X0.170000X-0.140000X0.170000X0*%
%ADD15RoundRect,0.135000X0.135000X0.185000X-0.135000X0.185000X-0.135000X-0.185000X0.135000X-0.185000X0*%
%ADD16RoundRect,0.135000X0.185000X-0.135000X0.185000X0.135000X-0.185000X0.135000X-0.185000X-0.135000X0*%
%ADD17RoundRect,0.135000X-0.185000X0.135000X-0.185000X-0.135000X0.185000X-0.135000X0.185000X0.135000X0*%
%ADD18RoundRect,0.135000X-0.135000X-0.185000X0.135000X-0.185000X0.135000X0.185000X-0.135000X0.185000X0*%
%ADD19R,2.500000X1.000000*%
%ADD20RoundRect,0.140000X-0.170000X0.140000X-0.170000X-0.140000X0.170000X-0.140000X0.170000X0.140000X0*%
%ADD21R,0.750000X0.500000*%
%ADD22R,1.500000X1.500000*%
%ADD23R,0.750000X0.400000*%
%ADD24RoundRect,0.140000X0.140000X0.170000X-0.140000X0.170000X-0.140000X-0.170000X0.140000X-0.170000X0*%
%ADD25RoundRect,0.150000X0.512500X0.150000X-0.512500X0.150000X-0.512500X-0.150000X0.512500X-0.150000X0*%
%ADD26RoundRect,0.150000X0.150000X-0.587500X0.150000X0.587500X-0.150000X0.587500X-0.150000X-0.587500X0*%
%ADD27RoundRect,0.250000X2.500000X-0.250000X2.500000X0.250000X-2.500000X0.250000X-2.500000X-0.250000X0*%
%ADD28RoundRect,0.250000X1.250000X-0.550000X1.250000X0.550000X-1.250000X0.550000X-1.250000X-0.550000X0*%
%ADD29R,1.100000X1.100000*%
%ADD30R,2.000000X2.400000*%
%ADD31RoundRect,0.011200X0.128800X-0.773800X0.128800X0.773800X-0.128800X0.773800X-0.128800X-0.773800X0*%
%ADD32R,0.870000X0.300000*%
%ADD33RoundRect,0.250000X0.250000X0.475000X-0.250000X0.475000X-0.250000X-0.475000X0.250000X-0.475000X0*%
%ADD34RoundRect,0.250000X-0.250000X-2.500000X0.250000X-2.500000X0.250000X2.500000X-0.250000X2.500000X0*%
%ADD35RoundRect,0.250000X-0.550000X-1.250000X0.550000X-1.250000X0.550000X1.250000X-0.550000X1.250000X0*%
%ADD36RoundRect,0.075000X0.075000X-0.700000X0.075000X0.700000X-0.075000X0.700000X-0.075000X-0.700000X0*%
%ADD37RoundRect,0.075000X0.700000X-0.075000X0.700000X0.075000X-0.700000X0.075000X-0.700000X-0.075000X0*%
%ADD38RoundRect,0.250000X0.325000X1.100000X-0.325000X1.100000X-0.325000X-1.100000X0.325000X-1.100000X0*%
%ADD39RoundRect,0.250000X0.425000X-0.450000X0.425000X0.450000X-0.425000X0.450000X-0.425000X-0.450000X0*%
%ADD40RoundRect,0.250000X1.950000X1.000000X-1.950000X1.000000X-1.950000X-1.000000X1.950000X-1.000000X0*%
%ADD41RoundRect,0.218750X-0.218750X-0.256250X0.218750X-0.256250X0.218750X0.256250X-0.218750X0.256250X0*%
%ADD42R,1.600000X5.700000*%
%ADD43R,1.500000X2.000000*%
%ADD44R,3.800000X2.000000*%
%ADD45RoundRect,0.150000X-0.825000X-0.150000X0.825000X-0.150000X0.825000X0.150000X-0.825000X0.150000X0*%
%ADD46RoundRect,0.250000X0.475000X-0.250000X0.475000X0.250000X-0.475000X0.250000X-0.475000X-0.250000X0*%
%ADD47RoundRect,0.011200X-0.128800X0.773800X-0.128800X-0.773800X0.128800X-0.773800X0.128800X0.773800X0*%
%ADD48RoundRect,0.249999X0.253892X-0.274048X0.253892X0.274048X-0.253892X0.274048X-0.253892X-0.274048X0*%
%ADD49RoundRect,0.075000X0.075000X-0.362500X0.075000X0.362500X-0.075000X0.362500X-0.075000X-0.362500X0*%
%ADD50RoundRect,0.150000X-0.150000X0.512500X-0.150000X-0.512500X0.150000X-0.512500X0.150000X0.512500X0*%
G04 APERTURE END LIST*
%TO.C,U401*%
G36*
X190002770Y-205024410D02*
G01*
X186000000Y-205024410D01*
X186000000Y-202977000D01*
X190002770Y-202977000D01*
X190002770Y-205024410D01*
G37*
D10*
X190002770Y-205024410D02*
X186000000Y-205024410D01*
X186000000Y-202977000D01*
X190002770Y-202977000D01*
X190002770Y-205024410D01*
%TO.C,U301*%
G36*
X189000000Y-119023000D02*
G01*
X184997230Y-119023000D01*
X184997230Y-116975590D01*
X189000000Y-116975590D01*
X189000000Y-119023000D01*
G37*
X189000000Y-119023000D02*
X184997230Y-119023000D01*
X184997230Y-116975590D01*
X189000000Y-116975590D01*
X189000000Y-119023000D01*
%TD*%
D11*
%TO.C,C308*%
X212525000Y-134250000D03*
X215475000Y-134250000D03*
%TD*%
D12*
%TO.C,C215*%
X168000000Y-58880000D03*
X168000000Y-57920000D03*
%TD*%
D13*
%TO.C,SW201*%
X191670000Y-46590000D03*
X189130000Y-46590000D03*
X189130000Y-54210000D03*
X191670000Y-54210000D03*
%TD*%
D14*
%TO.C,C226*%
X191120000Y-97800000D03*
X192080000Y-97800000D03*
%TD*%
D11*
%TO.C,C401*%
X211775000Y-194750000D03*
X214725000Y-194750000D03*
%TD*%
D15*
%TO.C,R216*%
X173010000Y-88500000D03*
X171990000Y-88500000D03*
%TD*%
D16*
%TO.C,R304*%
X191000000Y-108510000D03*
X191000000Y-107490000D03*
%TD*%
D12*
%TO.C,C217*%
X179000000Y-64230000D03*
X179000000Y-63270000D03*
%TD*%
D16*
%TO.C,R411*%
X188750000Y-195010000D03*
X188750000Y-193990000D03*
%TD*%
D17*
%TO.C,R418*%
X199250000Y-211990000D03*
X199250000Y-213010000D03*
%TD*%
%TO.C,R404*%
X183500000Y-214490000D03*
X183500000Y-215510000D03*
%TD*%
D18*
%TO.C,R202*%
X194290000Y-54400000D03*
X195310000Y-54400000D03*
%TD*%
D19*
%TO.C,J204*%
X165250000Y-61000000D03*
X160750000Y-61000000D03*
X165250000Y-63000000D03*
X160750000Y-63000000D03*
X165250000Y-65000000D03*
X160750000Y-65000000D03*
X165250000Y-67000000D03*
X160750000Y-67000000D03*
X165250000Y-69000000D03*
X160750000Y-69000000D03*
X165250000Y-71000000D03*
X160750000Y-71000000D03*
X165250000Y-73000000D03*
X160750000Y-73000000D03*
X165250000Y-75000000D03*
X160750000Y-75000000D03*
X165250000Y-77000000D03*
X160750000Y-77000000D03*
X165250000Y-79000000D03*
X160750000Y-79000000D03*
X165250000Y-81000000D03*
X160750000Y-81000000D03*
X165250000Y-83000000D03*
X160750000Y-83000000D03*
X165250000Y-85000000D03*
X160750000Y-85000000D03*
X165250000Y-87000000D03*
X160750000Y-87000000D03*
X165250000Y-89000000D03*
X160750000Y-89000000D03*
X165250000Y-91000000D03*
X160750000Y-91000000D03*
X165250000Y-93000000D03*
X160750000Y-93000000D03*
X165250000Y-95000000D03*
X160750000Y-95000000D03*
X165250000Y-97000000D03*
X160750000Y-97000000D03*
X165250000Y-99000000D03*
X160750000Y-99000000D03*
%TD*%
D17*
%TO.C,R201*%
X176400000Y-84490000D03*
X176400000Y-85510000D03*
%TD*%
D14*
%TO.C,C335*%
X169720000Y-113800000D03*
X170680000Y-113800000D03*
%TD*%
%TO.C,C209*%
X183020000Y-96500000D03*
X183980000Y-96500000D03*
%TD*%
D20*
%TO.C,C204*%
X186250000Y-94020000D03*
X186250000Y-94980000D03*
%TD*%
D16*
%TO.C,R205*%
X204750000Y-89510000D03*
X204750000Y-88490000D03*
%TD*%
D12*
%TO.C,C216*%
X181000000Y-61080000D03*
X181000000Y-60120000D03*
%TD*%
D16*
%TO.C,R414*%
X193500000Y-193760000D03*
X193500000Y-192740000D03*
%TD*%
D21*
%TO.C,Q308*%
X186905000Y-155405000D03*
X186905000Y-154135000D03*
X186905000Y-152865000D03*
D22*
X183800000Y-152650000D03*
X185500000Y-152650000D03*
X183800000Y-154350000D03*
D21*
X186905000Y-151595000D03*
D22*
X185500000Y-154350000D03*
D23*
X181100000Y-151595000D03*
X181100000Y-152865000D03*
X181100000Y-154135000D03*
X181100000Y-155405000D03*
%TD*%
D16*
%TO.C,R403*%
X188750000Y-215510000D03*
X188750000Y-214490000D03*
%TD*%
D24*
%TO.C,C423*%
X171480000Y-195750000D03*
X170520000Y-195750000D03*
%TD*%
%TO.C,C201*%
X194280000Y-78400000D03*
X193320000Y-78400000D03*
%TD*%
D17*
%TO.C,R229*%
X189000000Y-57590000D03*
X189000000Y-58610000D03*
%TD*%
D25*
%TO.C,U205*%
X196737500Y-70750000D03*
X196737500Y-69800000D03*
X196737500Y-68850000D03*
X194462500Y-68850000D03*
X194462500Y-70750000D03*
%TD*%
D24*
%TO.C,C326*%
X176280000Y-122000000D03*
X175320000Y-122000000D03*
%TD*%
D22*
%TO.C,Q404*%
X166800000Y-168650000D03*
X166800000Y-170350000D03*
D21*
X169905000Y-171405000D03*
X169905000Y-167595000D03*
X169905000Y-168865000D03*
D22*
X168500000Y-170350000D03*
D21*
X169905000Y-170135000D03*
D22*
X168500000Y-168650000D03*
D23*
X164100000Y-167595000D03*
X164100000Y-168865000D03*
X164100000Y-170135000D03*
X164100000Y-171405000D03*
%TD*%
D22*
%TO.C,Q401*%
X174600000Y-175350000D03*
D21*
X177705000Y-174295000D03*
X177705000Y-176835000D03*
X177705000Y-178105000D03*
D22*
X174600000Y-177050000D03*
D21*
X177705000Y-175565000D03*
D22*
X176300000Y-177050000D03*
X176300000Y-175350000D03*
D23*
X171900000Y-174295000D03*
X171900000Y-175565000D03*
X171900000Y-176835000D03*
X171900000Y-178105000D03*
%TD*%
D17*
%TO.C,R419*%
X175000000Y-207690000D03*
X175000000Y-208710000D03*
%TD*%
D14*
%TO.C,C219*%
X171520000Y-101000000D03*
X172480000Y-101000000D03*
%TD*%
D21*
%TO.C,Q304*%
X202655000Y-154135000D03*
X202655000Y-155405000D03*
D22*
X199550000Y-154350000D03*
D21*
X202655000Y-151595000D03*
D22*
X201250000Y-152650000D03*
X199550000Y-152650000D03*
X201250000Y-154350000D03*
D21*
X202655000Y-152865000D03*
D23*
X196850000Y-151595000D03*
X196850000Y-152865000D03*
X196850000Y-154135000D03*
X196850000Y-155405000D03*
%TD*%
D26*
%TO.C,D203*%
X197050000Y-57737500D03*
X198950000Y-57737500D03*
X198000000Y-55862500D03*
%TD*%
D15*
%TO.C,R213*%
X173010000Y-85500000D03*
X171990000Y-85500000D03*
%TD*%
D18*
%TO.C,R209*%
X205000000Y-97000000D03*
X206020000Y-97000000D03*
%TD*%
D22*
%TO.C,Q201*%
X206400000Y-72650000D03*
D21*
X207805000Y-69895000D03*
X207805000Y-73705000D03*
D22*
X204700000Y-70950000D03*
X206400000Y-70950000D03*
X204700000Y-72650000D03*
D21*
X207805000Y-71165000D03*
X207805000Y-72435000D03*
D23*
X202000000Y-69895000D03*
X202000000Y-71165000D03*
X202000000Y-72435000D03*
X202000000Y-73705000D03*
%TD*%
D24*
%TO.C,C207*%
X194980000Y-86250000D03*
X194020000Y-86250000D03*
%TD*%
D17*
%TO.C,R222*%
X190600000Y-95490000D03*
X190600000Y-96510000D03*
%TD*%
D22*
%TO.C,Q412*%
X201500000Y-168650000D03*
D21*
X202905000Y-167595000D03*
X202905000Y-171405000D03*
D22*
X199800000Y-170350000D03*
X199800000Y-168650000D03*
D21*
X202905000Y-170135000D03*
D22*
X201500000Y-170350000D03*
D21*
X202905000Y-168865000D03*
D23*
X197100000Y-167595000D03*
X197100000Y-168865000D03*
X197100000Y-170135000D03*
X197100000Y-171405000D03*
%TD*%
D20*
%TO.C,C413*%
X180860000Y-194020000D03*
X180860000Y-194980000D03*
%TD*%
D16*
%TO.C,R318*%
X180500000Y-110510000D03*
X180500000Y-109490000D03*
%TD*%
D27*
%TO.C,J303*%
X165300000Y-119800000D03*
X165300000Y-117800000D03*
X165300000Y-115800000D03*
X165300000Y-113800000D03*
X165300000Y-111800000D03*
D28*
X163050000Y-109400000D03*
X163050000Y-122200000D03*
%TD*%
D29*
%TO.C,D301*%
X192200000Y-127200000D03*
X192200000Y-130000000D03*
%TD*%
D14*
%TO.C,C409*%
X196770000Y-214500000D03*
X197730000Y-214500000D03*
%TD*%
D12*
%TO.C,C218*%
X169400000Y-58880000D03*
X169400000Y-57920000D03*
%TD*%
D18*
%TO.C,R423*%
X170740000Y-193750000D03*
X171760000Y-193750000D03*
%TD*%
D22*
%TO.C,Q309*%
X175050000Y-147350000D03*
X175050000Y-145650000D03*
D21*
X178155000Y-145865000D03*
D22*
X176750000Y-145650000D03*
X176750000Y-147350000D03*
D21*
X178155000Y-147135000D03*
X178155000Y-144595000D03*
X178155000Y-148405000D03*
D23*
X172350000Y-144595000D03*
X172350000Y-145865000D03*
X172350000Y-147135000D03*
X172350000Y-148405000D03*
%TD*%
D18*
%TO.C,TH301*%
X175290000Y-119600000D03*
X176310000Y-119600000D03*
%TD*%
D12*
%TO.C,C417*%
X190500000Y-193730000D03*
X190500000Y-192770000D03*
%TD*%
D14*
%TO.C,C324*%
X198770000Y-106250000D03*
X199730000Y-106250000D03*
%TD*%
D18*
%TO.C,R206*%
X187590000Y-62500000D03*
X188610000Y-62500000D03*
%TD*%
D15*
%TO.C,R220*%
X173010000Y-77750000D03*
X171990000Y-77750000D03*
%TD*%
D11*
%TO.C,C304*%
X212525000Y-138000000D03*
X215475000Y-138000000D03*
%TD*%
D12*
%TO.C,C311*%
X179250000Y-110480000D03*
X179250000Y-109520000D03*
%TD*%
D29*
%TO.C,D201*%
X200350000Y-81912500D03*
X200350000Y-84712500D03*
%TD*%
D24*
%TO.C,C202*%
X194280000Y-77000000D03*
X193320000Y-77000000D03*
%TD*%
D21*
%TO.C,Q407*%
X186905000Y-175365000D03*
X186905000Y-174095000D03*
D22*
X183800000Y-175150000D03*
X183800000Y-176850000D03*
D21*
X186905000Y-177905000D03*
X186905000Y-176635000D03*
D22*
X185500000Y-175150000D03*
X185500000Y-176850000D03*
D23*
X181100000Y-174095000D03*
X181100000Y-175365000D03*
X181100000Y-176635000D03*
X181100000Y-177905000D03*
%TD*%
D16*
%TO.C,R210*%
X205000000Y-99510000D03*
X205000000Y-98490000D03*
%TD*%
%TO.C,R305*%
X201250000Y-108510000D03*
X201250000Y-107490000D03*
%TD*%
D14*
%TO.C,C334*%
X169720000Y-115800000D03*
X170680000Y-115800000D03*
%TD*%
D22*
%TO.C,Q405*%
X191400000Y-176850000D03*
D21*
X194505000Y-176635000D03*
X194505000Y-175365000D03*
D22*
X193100000Y-175150000D03*
X193100000Y-176850000D03*
D21*
X194505000Y-177905000D03*
D22*
X191400000Y-175150000D03*
D21*
X194505000Y-174095000D03*
D23*
X188700000Y-174095000D03*
X188700000Y-175365000D03*
X188700000Y-176635000D03*
X188700000Y-177905000D03*
%TD*%
D30*
%TO.C,Y201*%
X184050000Y-93500000D03*
X180350000Y-93500000D03*
%TD*%
D12*
%TO.C,C320*%
X200000000Y-108480000D03*
X200000000Y-107520000D03*
%TD*%
D31*
%TO.C,U401*%
X181250000Y-207720000D03*
X181750000Y-207720000D03*
X182250000Y-207720000D03*
X182750000Y-207720000D03*
X183250000Y-207720000D03*
X183750000Y-207720000D03*
X184250000Y-207720000D03*
X184750000Y-207720000D03*
X185250000Y-207720000D03*
X185750000Y-207720000D03*
X186250000Y-207720000D03*
X186750000Y-207720000D03*
X187250000Y-207720000D03*
X187750000Y-207720000D03*
X188250000Y-207720000D03*
X188750000Y-207720000D03*
X189250000Y-207720000D03*
X189750000Y-207720000D03*
X190250000Y-207720000D03*
X190750000Y-207720000D03*
X191250000Y-207720000D03*
X191750000Y-207720000D03*
X192250000Y-207720000D03*
X192750000Y-207720000D03*
X193250000Y-207720000D03*
X193750000Y-207720000D03*
X194250000Y-207720000D03*
X194750000Y-207720000D03*
X194750000Y-200280000D03*
X194250000Y-200280000D03*
X193750000Y-200280000D03*
X193250000Y-200280000D03*
X192750000Y-200280000D03*
X192250000Y-200280000D03*
X191750000Y-200280000D03*
X191250000Y-200280000D03*
X190750000Y-200280000D03*
X190250000Y-200280000D03*
X189750000Y-200280000D03*
X189250000Y-200280000D03*
X188750000Y-200280000D03*
X188250000Y-200280000D03*
X187750000Y-200280000D03*
X187250000Y-200280000D03*
X186750000Y-200280000D03*
X186250000Y-200280000D03*
X185750000Y-200280000D03*
X185250000Y-200280000D03*
X184750000Y-200280000D03*
X184250000Y-200280000D03*
X183750000Y-200280000D03*
X183250000Y-200280000D03*
X182750000Y-200280000D03*
X182250000Y-200280000D03*
X181750000Y-200280000D03*
X181250000Y-200280000D03*
%TD*%
D12*
%TO.C,C318*%
X182500000Y-128480000D03*
X182500000Y-127520000D03*
%TD*%
D15*
%TO.C,R211*%
X173010000Y-79250000D03*
X171990000Y-79250000D03*
%TD*%
D16*
%TO.C,R233*%
X187100000Y-58610000D03*
X187100000Y-57590000D03*
%TD*%
D17*
%TO.C,R313*%
X181380000Y-127490000D03*
X181380000Y-128510000D03*
%TD*%
D29*
%TO.C,D401*%
X176000000Y-196650000D03*
X176000000Y-193850000D03*
%TD*%
D12*
%TO.C,C406*%
X187500000Y-215480000D03*
X187500000Y-214520000D03*
%TD*%
D16*
%TO.C,R203*%
X203500000Y-89510000D03*
X203500000Y-88490000D03*
%TD*%
D12*
%TO.C,C415*%
X182200000Y-194980000D03*
X182200000Y-194020000D03*
%TD*%
D16*
%TO.C,R208*%
X205800000Y-79822500D03*
X205800000Y-78802500D03*
%TD*%
D24*
%TO.C,C208*%
X181230000Y-96500000D03*
X180270000Y-96500000D03*
%TD*%
D17*
%TO.C,R417*%
X197750000Y-211990000D03*
X197750000Y-213010000D03*
%TD*%
%TO.C,R225*%
X199600000Y-95440000D03*
X199600000Y-96460000D03*
%TD*%
D12*
%TO.C,C210*%
X189500000Y-94980000D03*
X189500000Y-94020000D03*
%TD*%
D14*
%TO.C,C432*%
X212520000Y-203000000D03*
X213480000Y-203000000D03*
%TD*%
D32*
%TO.C,J201*%
X182135000Y-53350000D03*
X182135000Y-51850000D03*
X182135000Y-51350000D03*
X182135000Y-50850000D03*
X182135000Y-50350000D03*
X182135000Y-49850000D03*
X182135000Y-49350000D03*
X182135000Y-47850000D03*
X183865000Y-47850000D03*
X183865000Y-49350000D03*
X183865000Y-49850000D03*
X183865000Y-50350000D03*
X183865000Y-50850000D03*
X183865000Y-51350000D03*
X183865000Y-51850000D03*
X183865000Y-53350000D03*
%TD*%
D15*
%TO.C,TH401*%
X174010000Y-193750000D03*
X172990000Y-193750000D03*
%TD*%
D22*
%TO.C,Q402*%
X176300000Y-168650000D03*
D21*
X177705000Y-167595000D03*
X177705000Y-171405000D03*
D22*
X174600000Y-168650000D03*
X174600000Y-170350000D03*
D21*
X177705000Y-170135000D03*
X177705000Y-168865000D03*
D22*
X176300000Y-170350000D03*
D23*
X171900000Y-167595000D03*
X171900000Y-168865000D03*
X171900000Y-170135000D03*
X171900000Y-171405000D03*
%TD*%
D24*
%TO.C,C410*%
X200230000Y-214500000D03*
X199270000Y-214500000D03*
%TD*%
D15*
%TO.C,R221*%
X173010000Y-80750000D03*
X171990000Y-80750000D03*
%TD*%
D20*
%TO.C,C307*%
X187800000Y-106770000D03*
X187800000Y-107730000D03*
%TD*%
D17*
%TO.C,R307*%
X196250000Y-107490000D03*
X196250000Y-108510000D03*
%TD*%
D24*
%TO.C,C424*%
X171280000Y-205600000D03*
X170320000Y-205600000D03*
%TD*%
D20*
%TO.C,C306*%
X186200000Y-106770000D03*
X186200000Y-107730000D03*
%TD*%
%TO.C,C407*%
X186000000Y-214520000D03*
X186000000Y-215480000D03*
%TD*%
D33*
%TO.C,C221*%
X196550000Y-73400000D03*
X194650000Y-73400000D03*
%TD*%
D21*
%TO.C,Q410*%
X210655000Y-171405000D03*
X210655000Y-170135000D03*
X210655000Y-168865000D03*
D22*
X209250000Y-170350000D03*
X207550000Y-168650000D03*
D21*
X210655000Y-167595000D03*
D22*
X207550000Y-170350000D03*
X209250000Y-168650000D03*
D23*
X204850000Y-167595000D03*
X204850000Y-168865000D03*
X204850000Y-170135000D03*
X204850000Y-171405000D03*
%TD*%
D14*
%TO.C,C224*%
X196520000Y-97800000D03*
X197480000Y-97800000D03*
%TD*%
D34*
%TO.C,J202*%
X196800000Y-50300000D03*
X198800000Y-50300000D03*
D35*
X201200000Y-48050000D03*
X194400000Y-48050000D03*
%TD*%
D20*
%TO.C,C419*%
X179400000Y-214520000D03*
X179400000Y-215480000D03*
%TD*%
D16*
%TO.C,R410*%
X187250000Y-195010000D03*
X187250000Y-193990000D03*
%TD*%
D21*
%TO.C,Q411*%
X202905000Y-177905000D03*
D22*
X199800000Y-176850000D03*
D21*
X202905000Y-174095000D03*
D22*
X201500000Y-175150000D03*
X201500000Y-176850000D03*
D21*
X202905000Y-175365000D03*
D22*
X199800000Y-175150000D03*
D21*
X202905000Y-176635000D03*
D23*
X197100000Y-174095000D03*
X197100000Y-175365000D03*
X197100000Y-176635000D03*
X197100000Y-177905000D03*
%TD*%
D36*
%TO.C,U201*%
X180750000Y-87675000D03*
X181250000Y-87675000D03*
X181750000Y-87675000D03*
X182250000Y-87675000D03*
X182750000Y-87675000D03*
X183250000Y-87675000D03*
X183750000Y-87675000D03*
X184250000Y-87675000D03*
X184750000Y-87675000D03*
X185250000Y-87675000D03*
X185750000Y-87675000D03*
X186250000Y-87675000D03*
X186750000Y-87675000D03*
X187250000Y-87675000D03*
X187750000Y-87675000D03*
X188250000Y-87675000D03*
D37*
X190175000Y-85750000D03*
X190175000Y-85250000D03*
X190175000Y-84750000D03*
X190175000Y-84250000D03*
X190175000Y-83750000D03*
X190175000Y-83250000D03*
X190175000Y-82750000D03*
X190175000Y-82250000D03*
X190175000Y-81750000D03*
X190175000Y-81250000D03*
X190175000Y-80750000D03*
X190175000Y-80250000D03*
X190175000Y-79750000D03*
X190175000Y-79250000D03*
X190175000Y-78750000D03*
X190175000Y-78250000D03*
D36*
X188250000Y-76325000D03*
X187750000Y-76325000D03*
X187250000Y-76325000D03*
X186750000Y-76325000D03*
X186250000Y-76325000D03*
X185750000Y-76325000D03*
X185250000Y-76325000D03*
X184750000Y-76325000D03*
X184250000Y-76325000D03*
X183750000Y-76325000D03*
X183250000Y-76325000D03*
X182750000Y-76325000D03*
X182250000Y-76325000D03*
X181750000Y-76325000D03*
X181250000Y-76325000D03*
X180750000Y-76325000D03*
D37*
X178825000Y-78250000D03*
X178825000Y-78750000D03*
X178825000Y-79250000D03*
X178825000Y-79750000D03*
X178825000Y-80250000D03*
X178825000Y-80750000D03*
X178825000Y-81250000D03*
X178825000Y-81750000D03*
X178825000Y-82250000D03*
X178825000Y-82750000D03*
X178825000Y-83250000D03*
X178825000Y-83750000D03*
X178825000Y-84250000D03*
X178825000Y-84750000D03*
X178825000Y-85250000D03*
X178825000Y-85750000D03*
%TD*%
D11*
%TO.C,C404*%
X211775000Y-190250000D03*
X214725000Y-190250000D03*
%TD*%
D18*
%TO.C,R204*%
X194390000Y-57000000D03*
X195410000Y-57000000D03*
%TD*%
D12*
%TO.C,C420*%
X179250000Y-195080000D03*
X179250000Y-194120000D03*
%TD*%
D17*
%TO.C,R223*%
X193400000Y-95490000D03*
X193400000Y-96510000D03*
%TD*%
D16*
%TO.C,R231*%
X176300000Y-55810000D03*
X176300000Y-54790000D03*
%TD*%
D38*
%TO.C,C418*%
X207975000Y-197200000D03*
X205025000Y-197200000D03*
%TD*%
D12*
%TO.C,C312*%
X183000000Y-107480000D03*
X183000000Y-106520000D03*
%TD*%
D27*
%TO.C,J406*%
X165300000Y-211400000D03*
X165300000Y-209400000D03*
X165300000Y-207400000D03*
X165300000Y-205400000D03*
X165300000Y-203400000D03*
D28*
X163050000Y-201000000D03*
X163050000Y-213800000D03*
%TD*%
D14*
%TO.C,C421*%
X178120000Y-216800000D03*
X179080000Y-216800000D03*
%TD*%
D17*
%TO.C,R303*%
X184600000Y-106740000D03*
X184600000Y-107760000D03*
%TD*%
D16*
%TO.C,R413*%
X192000000Y-193760000D03*
X192000000Y-192740000D03*
%TD*%
D14*
%TO.C,C205*%
X178520000Y-73250000D03*
X179480000Y-73250000D03*
%TD*%
%TO.C,C310*%
X179270000Y-108200000D03*
X180230000Y-108200000D03*
%TD*%
D16*
%TO.C,R402*%
X184750000Y-195010000D03*
X184750000Y-193990000D03*
%TD*%
D17*
%TO.C,R302*%
X187480000Y-128590000D03*
X187480000Y-129610000D03*
%TD*%
D16*
%TO.C,R322*%
X198750000Y-108510000D03*
X198750000Y-107490000D03*
%TD*%
D20*
%TO.C,C411*%
X200750000Y-212020000D03*
X200750000Y-212980000D03*
%TD*%
%TO.C,C211*%
X201000000Y-88520000D03*
X201000000Y-89480000D03*
%TD*%
D14*
%TO.C,C206*%
X178520000Y-74500000D03*
X179480000Y-74500000D03*
%TD*%
D39*
%TO.C,C220*%
X179000000Y-60850000D03*
X179000000Y-58150000D03*
%TD*%
D40*
%TO.C,C327*%
X192700000Y-137250000D03*
X184300000Y-137250000D03*
%TD*%
D17*
%TO.C,R301*%
X190250000Y-128590000D03*
X190250000Y-129610000D03*
%TD*%
D22*
%TO.C,Q409*%
X207550000Y-176850000D03*
D21*
X210655000Y-175365000D03*
X210655000Y-174095000D03*
D22*
X207550000Y-175150000D03*
D21*
X210655000Y-177905000D03*
D22*
X209250000Y-176850000D03*
D21*
X210655000Y-176635000D03*
D22*
X209250000Y-175150000D03*
D23*
X204850000Y-174095000D03*
X204850000Y-175365000D03*
X204850000Y-176635000D03*
X204850000Y-177905000D03*
%TD*%
D16*
%TO.C,R234*%
X181000000Y-58710000D03*
X181000000Y-57690000D03*
%TD*%
%TO.C,R320*%
X192500000Y-108510000D03*
X192500000Y-107490000D03*
%TD*%
D20*
%TO.C,C332*%
X177200000Y-127520000D03*
X177200000Y-128480000D03*
%TD*%
D15*
%TO.C,R212*%
X173010000Y-84000000D03*
X171990000Y-84000000D03*
%TD*%
D16*
%TO.C,R321*%
X193750000Y-108510000D03*
X193750000Y-107490000D03*
%TD*%
D40*
%TO.C,C429*%
X175600000Y-185800000D03*
X167200000Y-185800000D03*
%TD*%
D11*
%TO.C,C325*%
X212525000Y-130250000D03*
X215475000Y-130250000D03*
%TD*%
D22*
%TO.C,Q311*%
X167550000Y-145650000D03*
D21*
X170655000Y-144595000D03*
X170655000Y-148405000D03*
X170655000Y-147135000D03*
D22*
X167550000Y-147350000D03*
D21*
X170655000Y-145865000D03*
D22*
X169250000Y-145650000D03*
X169250000Y-147350000D03*
D23*
X164850000Y-144595000D03*
X164850000Y-145865000D03*
X164850000Y-147135000D03*
X164850000Y-148405000D03*
%TD*%
D17*
%TO.C,R310*%
X185080000Y-128590000D03*
X185080000Y-129610000D03*
%TD*%
D16*
%TO.C,R319*%
X195000000Y-108510000D03*
X195000000Y-107490000D03*
%TD*%
D20*
%TO.C,C212*%
X188600000Y-60120000D03*
X188600000Y-61080000D03*
%TD*%
D15*
%TO.C,R219*%
X200910000Y-93950000D03*
X199890000Y-93950000D03*
%TD*%
D38*
%TO.C,C301*%
X208475000Y-126000000D03*
X205525000Y-126000000D03*
%TD*%
D22*
%TO.C,Q302*%
X209000000Y-152650000D03*
D21*
X210405000Y-152865000D03*
D22*
X209000000Y-154350000D03*
D21*
X210405000Y-151595000D03*
X210405000Y-155405000D03*
X210405000Y-154135000D03*
D22*
X207300000Y-152650000D03*
X207300000Y-154350000D03*
D23*
X204600000Y-151595000D03*
X204600000Y-152865000D03*
X204600000Y-154135000D03*
X204600000Y-155405000D03*
%TD*%
D12*
%TO.C,C317*%
X186280000Y-129580000D03*
X186280000Y-128620000D03*
%TD*%
D14*
%TO.C,C302*%
X195770000Y-121750000D03*
X196730000Y-121750000D03*
%TD*%
D15*
%TO.C,R214*%
X173010000Y-82250000D03*
X171990000Y-82250000D03*
%TD*%
D11*
%TO.C,C315*%
X198525000Y-115000000D03*
X201475000Y-115000000D03*
%TD*%
D21*
%TO.C,Q408*%
X186905000Y-168865000D03*
D22*
X185500000Y-170350000D03*
D21*
X186905000Y-171405000D03*
X186905000Y-170135000D03*
D22*
X183800000Y-170350000D03*
X185500000Y-168650000D03*
D21*
X186905000Y-167595000D03*
D22*
X183800000Y-168650000D03*
D23*
X181100000Y-167595000D03*
X181100000Y-168865000D03*
X181100000Y-170135000D03*
X181100000Y-171405000D03*
%TD*%
D16*
%TO.C,R407*%
X182200000Y-215510000D03*
X182200000Y-214490000D03*
%TD*%
D14*
%TO.C,C225*%
X200120000Y-97800000D03*
X201080000Y-97800000D03*
%TD*%
D16*
%TO.C,R401*%
X183400000Y-195010000D03*
X183400000Y-193990000D03*
%TD*%
D38*
%TO.C,C422*%
X207975000Y-201400000D03*
X205025000Y-201400000D03*
%TD*%
D21*
%TO.C,Q306*%
X194470000Y-152865000D03*
X194470000Y-155405000D03*
X194470000Y-151595000D03*
D22*
X191365000Y-152650000D03*
X193065000Y-152650000D03*
X193065000Y-154350000D03*
D21*
X194470000Y-154135000D03*
D22*
X191365000Y-154350000D03*
D23*
X188665000Y-151595000D03*
X188665000Y-152865000D03*
X188665000Y-154135000D03*
X188665000Y-155405000D03*
%TD*%
D21*
%TO.C,Q305*%
X194405000Y-145865000D03*
D22*
X191300000Y-145650000D03*
D21*
X194405000Y-147135000D03*
D22*
X191300000Y-147350000D03*
X193000000Y-147350000D03*
D21*
X194405000Y-148405000D03*
X194405000Y-144595000D03*
D22*
X193000000Y-145650000D03*
D23*
X188600000Y-144595000D03*
X188600000Y-145865000D03*
X188600000Y-147135000D03*
X188600000Y-148405000D03*
%TD*%
D22*
%TO.C,Q307*%
X185500000Y-147350000D03*
D21*
X186905000Y-148405000D03*
X186905000Y-147135000D03*
D22*
X183800000Y-145650000D03*
X183800000Y-147350000D03*
X185500000Y-145650000D03*
D21*
X186905000Y-145865000D03*
X186905000Y-144595000D03*
D23*
X181100000Y-144595000D03*
X181100000Y-145865000D03*
X181100000Y-147135000D03*
X181100000Y-148405000D03*
%TD*%
D11*
%TO.C,C321*%
X198525000Y-118800000D03*
X201475000Y-118800000D03*
%TD*%
D16*
%TO.C,R317*%
X181750000Y-110510000D03*
X181750000Y-109490000D03*
%TD*%
D17*
%TO.C,R228*%
X188250000Y-93990000D03*
X188250000Y-95010000D03*
%TD*%
D15*
%TO.C,R215*%
X173010000Y-87000000D03*
X171990000Y-87000000D03*
%TD*%
%TO.C,R218*%
X198110000Y-93950000D03*
X197090000Y-93950000D03*
%TD*%
D21*
%TO.C,Q403*%
X169905000Y-174295000D03*
X169905000Y-178105000D03*
X169905000Y-175565000D03*
D22*
X166800000Y-175350000D03*
D21*
X169905000Y-176835000D03*
D22*
X168500000Y-177050000D03*
X168500000Y-175350000D03*
X166800000Y-177050000D03*
D23*
X164100000Y-174295000D03*
X164100000Y-175565000D03*
X164100000Y-176835000D03*
X164100000Y-178105000D03*
%TD*%
D17*
%TO.C,R406*%
X180800000Y-214490000D03*
X180800000Y-215510000D03*
%TD*%
%TO.C,R232*%
X173500000Y-54690000D03*
X173500000Y-55710000D03*
%TD*%
D40*
%TO.C,C428*%
X208700000Y-185250000D03*
X200300000Y-185250000D03*
%TD*%
D15*
%TO.C,R217*%
X173010000Y-90000000D03*
X171990000Y-90000000D03*
%TD*%
D19*
%TO.C,J205*%
X210875000Y-61000000D03*
X215125000Y-61000000D03*
X210875000Y-63000000D03*
X215125000Y-63000000D03*
X210875000Y-65000000D03*
X215125000Y-65000000D03*
X210875000Y-67000000D03*
X215125000Y-67000000D03*
X210875000Y-69000000D03*
X215125000Y-69000000D03*
X210875000Y-71000000D03*
X215125000Y-71000000D03*
X210875000Y-73000000D03*
X215125000Y-73000000D03*
X210875000Y-75000000D03*
X215125000Y-75000000D03*
X210875000Y-77000000D03*
X215125000Y-77000000D03*
X210875000Y-79000000D03*
X215125000Y-79000000D03*
X210875000Y-81000000D03*
X215125000Y-81000000D03*
X210875000Y-83000000D03*
X215125000Y-83000000D03*
X210875000Y-85000000D03*
X215125000Y-85000000D03*
X210875000Y-87000000D03*
X215125000Y-87000000D03*
X210875000Y-89000000D03*
X215125000Y-89000000D03*
X210875000Y-91000000D03*
X215125000Y-91000000D03*
X210875000Y-93000000D03*
X215125000Y-93000000D03*
X210875000Y-95000000D03*
X215125000Y-95000000D03*
X210875000Y-97000000D03*
X215125000Y-97000000D03*
X210875000Y-99000000D03*
X215125000Y-99000000D03*
%TD*%
D17*
%TO.C,R405*%
X176600000Y-214490000D03*
X176600000Y-215510000D03*
%TD*%
D41*
%TO.C,D204*%
X159812500Y-57000000D03*
X161387500Y-57000000D03*
%TD*%
D14*
%TO.C,C314*%
X195770000Y-123000000D03*
X196730000Y-123000000D03*
%TD*%
D21*
%TO.C,Q310*%
X178155000Y-151595000D03*
D22*
X176750000Y-154350000D03*
D21*
X178155000Y-152865000D03*
X178155000Y-155405000D03*
D22*
X176750000Y-152650000D03*
X175050000Y-154350000D03*
D21*
X178155000Y-154135000D03*
D22*
X175050000Y-152650000D03*
D23*
X172350000Y-151595000D03*
X172350000Y-152865000D03*
X172350000Y-154135000D03*
X172350000Y-155405000D03*
%TD*%
D15*
%TO.C,R226*%
X164710000Y-57000000D03*
X163690000Y-57000000D03*
%TD*%
D16*
%TO.C,R306*%
X197500000Y-108510000D03*
X197500000Y-107490000D03*
%TD*%
D20*
%TO.C,C214*%
X206500000Y-98520000D03*
X206500000Y-99480000D03*
%TD*%
D12*
%TO.C,C336*%
X178750000Y-116980000D03*
X178750000Y-116020000D03*
%TD*%
D20*
%TO.C,C213*%
X202800000Y-78832500D03*
X202800000Y-79792500D03*
%TD*%
D42*
%TO.C,L301*%
X195050000Y-127250000D03*
X199750000Y-127250000D03*
%TD*%
D20*
%TO.C,C412*%
X196250000Y-212020000D03*
X196250000Y-212980000D03*
%TD*%
D11*
%TO.C,C408*%
X211775000Y-181500000D03*
X214725000Y-181500000D03*
%TD*%
D43*
%TO.C,U204*%
X175900000Y-58950000D03*
X173600000Y-58950000D03*
X171300000Y-58950000D03*
D44*
X173600000Y-65250000D03*
%TD*%
D24*
%TO.C,C322*%
X207480000Y-118400000D03*
X206520000Y-118400000D03*
%TD*%
D21*
%TO.C,Q312*%
X170655000Y-154135000D03*
X170655000Y-155405000D03*
D22*
X169250000Y-154350000D03*
D21*
X170655000Y-152865000D03*
X170655000Y-151595000D03*
D22*
X167550000Y-152650000D03*
X167550000Y-154350000D03*
X169250000Y-152650000D03*
D23*
X164850000Y-151595000D03*
X164850000Y-152865000D03*
X164850000Y-154135000D03*
X164850000Y-155405000D03*
%TD*%
D11*
%TO.C,C331*%
X212525000Y-126000000D03*
X215475000Y-126000000D03*
%TD*%
D14*
%TO.C,C414*%
X196040000Y-196000000D03*
X197000000Y-196000000D03*
%TD*%
D12*
%TO.C,C316*%
X189000000Y-129580000D03*
X189000000Y-128620000D03*
%TD*%
D45*
%TO.C,U202*%
X190725000Y-60095000D03*
X190725000Y-61365000D03*
X190725000Y-62635000D03*
X190725000Y-63905000D03*
X195675000Y-63905000D03*
X195675000Y-62635000D03*
X195675000Y-61365000D03*
X195675000Y-60095000D03*
%TD*%
D46*
%TO.C,C222*%
X181750000Y-65200000D03*
X181750000Y-63300000D03*
%TD*%
D24*
%TO.C,C425*%
X170680000Y-202800000D03*
X169720000Y-202800000D03*
%TD*%
%TO.C,C426*%
X170480000Y-199800000D03*
X169520000Y-199800000D03*
%TD*%
D40*
%TO.C,C328*%
X176200000Y-137750000D03*
X167800000Y-137750000D03*
%TD*%
D47*
%TO.C,U301*%
X193750000Y-114280000D03*
X193250000Y-114280000D03*
X192750000Y-114280000D03*
X192250000Y-114280000D03*
X191750000Y-114280000D03*
X191250000Y-114280000D03*
X190750000Y-114280000D03*
X190250000Y-114280000D03*
X189750000Y-114280000D03*
X189250000Y-114280000D03*
X188750000Y-114280000D03*
X188250000Y-114280000D03*
X187750000Y-114280000D03*
X187250000Y-114280000D03*
X186750000Y-114280000D03*
X186250000Y-114280000D03*
X185750000Y-114280000D03*
X185250000Y-114280000D03*
X184750000Y-114280000D03*
X184250000Y-114280000D03*
X183750000Y-114280000D03*
X183250000Y-114280000D03*
X182750000Y-114280000D03*
X182250000Y-114280000D03*
X181750000Y-114280000D03*
X181250000Y-114280000D03*
X180750000Y-114280000D03*
X180250000Y-114280000D03*
X180250000Y-121720000D03*
X180750000Y-121720000D03*
X181250000Y-121720000D03*
X181750000Y-121720000D03*
X182250000Y-121720000D03*
X182750000Y-121720000D03*
X183250000Y-121720000D03*
X183750000Y-121720000D03*
X184250000Y-121720000D03*
X184750000Y-121720000D03*
X185250000Y-121720000D03*
X185750000Y-121720000D03*
X186250000Y-121720000D03*
X186750000Y-121720000D03*
X187250000Y-121720000D03*
X187750000Y-121720000D03*
X188250000Y-121720000D03*
X188750000Y-121720000D03*
X189250000Y-121720000D03*
X189750000Y-121720000D03*
X190250000Y-121720000D03*
X190750000Y-121720000D03*
X191250000Y-121720000D03*
X191750000Y-121720000D03*
X192250000Y-121720000D03*
X192750000Y-121720000D03*
X193250000Y-121720000D03*
X193750000Y-121720000D03*
%TD*%
D17*
%TO.C,R422*%
X178000000Y-214490000D03*
X178000000Y-215510000D03*
%TD*%
D12*
%TO.C,C416*%
X186000000Y-194980000D03*
X186000000Y-194020000D03*
%TD*%
D40*
%TO.C,C427*%
X192400000Y-185600000D03*
X184000000Y-185600000D03*
%TD*%
D22*
%TO.C,Q303*%
X200050000Y-145650000D03*
X201750000Y-145650000D03*
D21*
X203155000Y-147135000D03*
X203155000Y-148405000D03*
X203155000Y-144595000D03*
X203155000Y-145865000D03*
D22*
X201750000Y-147350000D03*
X200050000Y-147350000D03*
D23*
X197350000Y-144595000D03*
X197350000Y-145865000D03*
X197350000Y-147135000D03*
X197350000Y-148405000D03*
%TD*%
D14*
%TO.C,C323*%
X199720000Y-122400000D03*
X200680000Y-122400000D03*
%TD*%
D17*
%TO.C,R230*%
X206000000Y-88490000D03*
X206000000Y-89510000D03*
%TD*%
D34*
%TO.C,J209*%
X164800000Y-50600000D03*
X166800000Y-50600000D03*
X168800000Y-50600000D03*
D35*
X171200000Y-48350000D03*
X162400000Y-48350000D03*
%TD*%
D18*
%TO.C,R323*%
X175290000Y-120800000D03*
X176310000Y-120800000D03*
%TD*%
D11*
%TO.C,C319*%
X212525000Y-122000000D03*
X215475000Y-122000000D03*
%TD*%
D48*
%TO.C,U203*%
X203975000Y-82662500D03*
X205225000Y-83962500D03*
X203975000Y-83962500D03*
X205225000Y-82662500D03*
D49*
X203400000Y-85250000D03*
X204200000Y-85250000D03*
X205000000Y-85250000D03*
X205800000Y-85250000D03*
X205800000Y-81375000D03*
X205000000Y-81375000D03*
X204200000Y-81375000D03*
X203400000Y-81375000D03*
%TD*%
D11*
%TO.C,C430*%
X211775000Y-199800000D03*
X214725000Y-199800000D03*
%TD*%
D17*
%TO.C,R421*%
X176400000Y-207690000D03*
X176400000Y-208710000D03*
%TD*%
D12*
%TO.C,C433*%
X196750000Y-205730000D03*
X196750000Y-204770000D03*
%TD*%
D21*
%TO.C,Q406*%
X194505000Y-170135000D03*
X194505000Y-168865000D03*
D22*
X193100000Y-170350000D03*
X193100000Y-168650000D03*
X191400000Y-168650000D03*
D21*
X194505000Y-167595000D03*
X194505000Y-171405000D03*
D22*
X191400000Y-170350000D03*
D23*
X188700000Y-167595000D03*
X188700000Y-168865000D03*
X188700000Y-170135000D03*
X188700000Y-171405000D03*
%TD*%
D17*
%TO.C,R420*%
X178000000Y-207690000D03*
X178000000Y-208710000D03*
%TD*%
D20*
%TO.C,C309*%
X181600000Y-106520000D03*
X181600000Y-107480000D03*
%TD*%
%TO.C,C402*%
X178000000Y-194120000D03*
X178000000Y-195080000D03*
%TD*%
D17*
%TO.C,R224*%
X196800000Y-95440000D03*
X196800000Y-96460000D03*
%TD*%
D14*
%TO.C,C203*%
X176520000Y-89860000D03*
X177480000Y-89860000D03*
%TD*%
D22*
%TO.C,Q301*%
X209000000Y-147350000D03*
D21*
X210405000Y-148405000D03*
D22*
X207300000Y-147350000D03*
D21*
X210405000Y-144595000D03*
D22*
X207300000Y-145650000D03*
D21*
X210405000Y-145865000D03*
D22*
X209000000Y-145650000D03*
D21*
X210405000Y-147135000D03*
D23*
X204600000Y-144595000D03*
X204600000Y-145865000D03*
X204600000Y-147135000D03*
X204600000Y-148405000D03*
%TD*%
D16*
%TO.C,R207*%
X204100000Y-79822500D03*
X204100000Y-78802500D03*
%TD*%
D20*
%TO.C,C313*%
X192000000Y-124520000D03*
X192000000Y-125480000D03*
%TD*%
D38*
%TO.C,C431*%
X207975000Y-193000000D03*
X205025000Y-193000000D03*
%TD*%
D21*
%TO.C,Q202*%
X201895000Y-66905000D03*
X201895000Y-64365000D03*
X201895000Y-63095000D03*
D22*
X203300000Y-64150000D03*
D21*
X201895000Y-65635000D03*
D22*
X205000000Y-65850000D03*
X203300000Y-65850000D03*
X205000000Y-64150000D03*
D23*
X207700000Y-66905000D03*
X207700000Y-65635000D03*
X207700000Y-64365000D03*
X207700000Y-63095000D03*
%TD*%
D14*
%TO.C,C333*%
X169720000Y-117800000D03*
X170680000Y-117800000D03*
%TD*%
D17*
%TO.C,R227*%
X202250000Y-88490000D03*
X202250000Y-89510000D03*
%TD*%
D50*
%TO.C,D202*%
X185150000Y-58062500D03*
X184200000Y-58062500D03*
X183250000Y-58062500D03*
X183250000Y-60337500D03*
X184200000Y-60337500D03*
X185150000Y-60337500D03*
%TD*%
D17*
%TO.C,R311*%
X183880000Y-128590000D03*
X183880000Y-129610000D03*
%TD*%
D38*
%TO.C,C330*%
X208475000Y-122000000D03*
X205525000Y-122000000D03*
%TD*%
D17*
%TO.C,R314*%
X180250000Y-127490000D03*
X180250000Y-128510000D03*
%TD*%
D24*
%TO.C,C223*%
X194680000Y-97800000D03*
X193720000Y-97800000D03*
%TD*%
D40*
%TO.C,C329*%
X208950000Y-137250000D03*
X200550000Y-137250000D03*
%TD*%
M02*
